<svg id="my-svg" width="100%" xmlns="http://www.w3.org/2000/svg" xmlns:xlink="http://www.w3.org/1999/xlink" class="classDiagram" style="max-width: 6963.3px; background-color: transparent;" viewBox="0 0 6963.296875 217" role="graphics-document document" aria-roledescription="classDiagram"><style>#my-svg{font-family:"trebuchet ms",verdana,arial,sans-serif;font-size:16px;fill:#333;}@keyframes edge-animation-frame{from{stroke-dashoffset:0;}}@keyframes dash{to{stroke-dashoffset:0;}}#my-svg .edge-animation-slow{stroke-dasharray:9,5!important;stroke-dashoffset:900;animation:dash 50s linear infinite;stroke-linecap:round;}#my-svg .edge-animation-fast{stroke-dasharray:9,5!important;stroke-dashoffset:900;animation:dash 20s linear infinite;stroke-linecap:round;}#my-svg .error-icon{fill:#552222;}#my-svg .error-text{fill:#552222;stroke:#552222;}#my-svg .edge-thickness-normal{stroke-width:1px;}#my-svg .edge-thickness-thick{stroke-width:3.5px;}#my-svg .edge-pattern-solid{stroke-dasharray:0;}#my-svg .edge-thickness-invisible{stroke-width:0;fill:none;}#my-svg .edge-pattern-dashed{stroke-dasharray:3;}#my-svg .edge-pattern-dotted{stroke-dasharray:2;}#my-svg .marker{fill:#333333;stroke:#333333;}#my-svg .marker.cross{stroke:#333333;}#my-svg svg{font-family:"trebuchet ms",verdana,arial,sans-serif;font-size:16px;}#my-svg p{margin:0;}#my-svg g.classGroup text{fill:#9370DB;stroke:none;font-family:"trebuchet ms",verdana,arial,sans-serif;font-size:10px;}#my-svg g.classGroup text .title{font-weight:bolder;}#my-svg .cluster-label text{fill:#333;}#my-svg .cluster-label span{color:#333;}#my-svg .cluster-label span p{background-color:transparent;}#my-svg .cluster rect{fill:#ffffde;stroke:#aaaa33;stroke-width:1px;}#my-svg .cluster text{fill:#333;}#my-svg .cluster span{color:#333;}#my-svg .nodeLabel,#my-svg .edgeLabel{color:#131300;}#my-svg .noteLabel .nodeLabel,#my-svg .noteLabel .edgeLabel{color:black;}#my-svg .edgeLabel .label rect{fill:#ECECFF;}#my-svg .label text{fill:#131300;}#my-svg .labelBkg{background:#ECECFF;}#my-svg .edgeLabel .label span{background:#ECECFF;}#my-svg .classTitle{font-weight:bolder;}#my-svg .node rect,#my-svg .node circle,#my-svg .node ellipse,#my-svg .node polygon,#my-svg .node path{fill:#ECECFF;stroke:#9370DB;stroke-width:1;}#my-svg .divider{stroke:#9370DB;stroke-width:1;}#my-svg g.clickable{cursor:pointer;}#my-svg g.classGroup rect{fill:#ECECFF;stroke:#9370DB;}#my-svg g.classGroup line{stroke:#9370DB;stroke-width:1;}#my-svg .classLabel .box{stroke:none;stroke-width:0;fill:#ECECFF;opacity:0.5;}#my-svg .classLabel .label{fill:#9370DB;font-size:10px;}#my-svg .relation{stroke:#333333;stroke-width:1;fill:none;}#my-svg .dashed-line{stroke-dasharray:3;}#my-svg .dotted-line{stroke-dasharray:1 2;}#my-svg [id$="-compositionStart"],#my-svg .composition{fill:#333333!important;stroke:#333333!important;stroke-width:1;}#my-svg [id$="-compositionEnd"],#my-svg .composition{fill:#333333!important;stroke:#333333!important;stroke-width:1;}#my-svg [id$="-dependencyStart"],#my-svg .dependency{fill:#333333!important;stroke:#333333!important;stroke-width:1;}#my-svg [id$="-dependencyEnd"],#my-svg .dependency{fill:#333333!important;stroke:#333333!important;stroke-width:1;}#my-svg [id$="-extensionStart"],#my-svg .extension{fill:transparent!important;stroke:#333333!important;stroke-width:1;}#my-svg [id$="-extensionEnd"],#my-svg .extension{fill:transparent!important;stroke:#333333!important;stroke-width:1;}#my-svg [id$="-aggregationStart"],#my-svg .aggregation{fill:transparent!important;stroke:#333333!important;stroke-width:1;}#my-svg [id$="-aggregationEnd"],#my-svg .aggregation{fill:transparent!important;stroke:#333333!important;stroke-width:1;}#my-svg [id$="-lollipopStart"],#my-svg .lollipop{fill:#ECECFF!important;stroke:#333333!important;stroke-width:1;}#my-svg [id$="-lollipopEnd"],#my-svg .lollipop{fill:#ECECFF!important;stroke:#333333!important;stroke-width:1;}#my-svg .edgeTerminals{font-size:11px;line-height:initial;}#my-svg .classTitleText{text-anchor:middle;font-size:18px;fill:#333;}#my-svg .edgeLabel[data-look="neo"]{background-color:rgba(232,232,232, 0.8);text-align:center;}#my-svg .edgeLabel[data-look="neo"] p{background-color:rgba(232,232,232, 0.8);}#my-svg .edgeLabel[data-look="neo"] rect{opacity:0.5;background-color:rgba(232,232,232, 0.8);fill:rgba(232,232,232, 0.8);}#my-svg .label-icon{display:inline-block;height:1em;overflow:visible;vertical-align:-0.125em;}#my-svg .node .label-icon path{fill:currentColor;stroke:revert;stroke-width:revert;}#my-svg .node .neo-node{stroke:#9370DB;}#my-svg [data-look="neo"].node rect,#my-svg [data-look="neo"].cluster rect,#my-svg [data-look="neo"].node polygon{stroke:#9370DB;filter:drop-shadow(1px 2px 2px rgba(185, 185, 185, 1));}#my-svg [data-look="neo"].swimlane.cluster rect{filter:none;}#my-svg [data-look="neo"].node path{stroke:#9370DB;stroke-width:1px;}#my-svg [data-look="neo"].node .outer-path{filter:drop-shadow(1px 2px 2px rgba(185, 185, 185, 1));}#my-svg [data-look="neo"].node .neo-line path{stroke:#9370DB;filter:none;}#my-svg [data-look="neo"].node circle{stroke:#9370DB;filter:drop-shadow(1px 2px 2px rgba(185, 185, 185, 1));}#my-svg [data-look="neo"].node circle .state-start{fill:#000000;}#my-svg [data-look="neo"].icon-shape .icon{fill:#9370DB;filter:drop-shadow(1px 2px 2px rgba(185, 185, 185, 1));}#my-svg [data-look="neo"].icon-shape .icon-neo path{stroke:#9370DB;filter:drop-shadow(1px 2px 2px rgba(185, 185, 185, 1));}#my-svg :root{--mermaid-font-family:"trebuchet ms",verdana,arial,sans-serif;}</style><g><defs><marker id="my-svg_classDiagram-aggregationStart" class="marker aggregation classDiagram" refX="18" refY="7" markerWidth="190" markerHeight="240" orient="auto" markerUnits="userSpaceOnUse"><path d="M 18,7 L9,13 L1,7 L9,1 Z"/></marker></defs><defs><marker id="my-svg_classDiagram-aggregationEnd" class="marker aggregation classDiagram" refX="1" refY="7" markerWidth="20" markerHeight="28" orient="auto" markerUnits="userSpaceOnUse"><path d="M 18,7 L9,13 L1,7 L9,1 Z"/></marker></defs><defs><marker id="my-svg_classDiagram-aggregationStart-margin" class="marker aggregation classDiagram" refX="15" refY="7" markerWidth="190" markerHeight="240" orient="auto" markerUnits="userSpaceOnUse"><path d="M 18,7 L9,13 L1,7 L9,1 Z" style="stroke-width: 2;"/></marker></defs><defs><marker id="my-svg_classDiagram-aggregationEnd-margin" class="marker aggregation classDiagram" refX="1" refY="7" markerWidth="20" markerHeight="28" orient="auto" markerUnits="userSpaceOnUse"><path d="M 18,7 L9,13 L1,7 L9,1 Z" style="stroke-width: 2;"/></marker></defs><defs><marker id="my-svg_classDiagram-extensionStart" class="marker extension classDiagram" refX="18" refY="7" markerWidth="20" markerHeight="28" orient="auto" markerUnits="userSpaceOnUse"><path d="M 1,7 L18,13 V 1 Z"/></marker></defs><defs><marker id="my-svg_classDiagram-extensionEnd" class="marker extension classDiagram" refX="1" refY="7" markerWidth="20" markerHeight="28" orient="auto" markerUnits="userSpaceOnUse"><path d="M 1,1 V 13 L18,7 Z"/></marker></defs><marker id="my-svg_classDiagram-extensionStart-margin" class="marker extension classDiagram" refX="18" refY="7" markerWidth="20" markerHeight="28" orient="auto" markerUnits="userSpaceOnUse" viewBox="0 0 20 14"><polygon points="10,7 18,13 18,1" style="stroke-width: 2; stroke-dasharray: 0;"/></marker><defs><marker id="my-svg_classDiagram-extensionEnd-margin" class="marker extension classDiagram" refX="9" refY="7" markerWidth="20" markerHeight="28" orient="auto" markerUnits="userSpaceOnUse" viewBox="0 0 20 14"><polygon points="10,1 10,13 18,7" style="stroke-width: 2; stroke-dasharray: 0;"/></marker></defs><defs><marker id="my-svg_classDiagram-compositionStart" class="marker composition classDiagram" refX="18" refY="7" markerWidth="190" markerHeight="240" orient="auto" markerUnits="userSpaceOnUse"><path d="M 18,7 L9,13 L1,7 L9,1 Z"/></marker></defs><defs><marker id="my-svg_classDiagram-compositionEnd" class="marker composition classDiagram" refX="1" refY="7" markerWidth="20" markerHeight="28" orient="auto" markerUnits="userSpaceOnUse"><path d="M 18,7 L9,13 L1,7 L9,1 Z"/></marker></defs><defs><marker id="my-svg_classDiagram-compositionStart-margin" class="marker composition classDiagram" refX="15" refY="7" markerWidth="190" markerHeight="240" orient="auto" markerUnits="userSpaceOnUse"><path viewBox="0 0 15 15" d="M 18,7 L9,13 L1,7 L9,1 Z" style="stroke-width: 0;"/></marker></defs><defs><marker id="my-svg_classDiagram-compositionEnd-margin" class="marker composition classDiagram" refX="3.5" refY="7" markerWidth="20" markerHeight="28" orient="auto" markerUnits="userSpaceOnUse"><path d="M 18,7 L9,13 L1,7 L9,1 Z" style="stroke-width: 0;"/></marker></defs><defs><marker id="my-svg_classDiagram-dependencyStart" class="marker dependency classDiagram" refX="6" refY="7" markerWidth="190" markerHeight="240" orient="auto" markerUnits="userSpaceOnUse"><path d="M 5,7 L9,13 L1,7 L9,1 Z"/></marker></defs><defs><marker id="my-svg_classDiagram-dependencyEnd" class="marker dependency classDiagram" refX="13" refY="7" markerWidth="20" markerHeight="28" orient="auto" markerUnits="userSpaceOnUse"><path d="M 18,7 L9,13 L14,7 L9,1 Z"/></marker></defs><defs><marker id="my-svg_classDiagram-dependencyStart-margin" class="marker dependency classDiagram" refX="4" refY="7" markerWidth="190" markerHeight="240" orient="auto" markerUnits="userSpaceOnUse"><path d="M 5,7 L9,13 L1,7 L9,1 Z" style="stroke-width: 0;"/></marker></defs><defs><marker id="my-svg_classDiagram-dependencyEnd-margin" class="marker dependency classDiagram" refX="16" refY="7" markerWidth="20" markerHeight="28" orient="auto" markerUnits="userSpaceOnUse"><path d="M 18,7 L9,13 L14,7 L9,1 Z" style="stroke-width: 0;"/></marker></defs><defs><marker id="my-svg_classDiagram-lollipopStart" class="marker lollipop classDiagram" refX="13" refY="7" markerWidth="190" markerHeight="240" orient="auto" markerUnits="userSpaceOnUse"><circle fill="transparent" cx="7" cy="7" r="6"/></marker></defs><defs><marker id="my-svg_classDiagram-lollipopEnd" class="marker lollipop classDiagram" refX="1" refY="7" markerWidth="190" markerHeight="240" orient="auto" markerUnits="userSpaceOnUse"><circle fill="transparent" cx="7" cy="7" r="6"/></marker></defs><defs><marker id="my-svg_classDiagram-lollipopStart-margin" class="marker lollipop classDiagram" refX="13" refY="7" markerWidth="190" markerHeight="240" orient="auto" markerUnits="userSpaceOnUse"><circle fill="transparent" cx="7" cy="7" r="6" stroke-width="2"/></marker></defs><defs><marker id="my-svg_classDiagram-lollipopEnd-margin" class="marker lollipop classDiagram" refX="1" refY="7" markerWidth="190" markerHeight="240" orient="auto" markerUnits="userSpaceOnUse"><circle fill="transparent" cx="7" cy="7" r="6" stroke-width="2"/></marker></defs><g class="root"><g class="clusters"/><g class="edgePaths"/><g class="edgeLabels"/><g class="nodes"><g class="node default" id="my-svg-classId-VehicleCommandService-0" data-look="classic" transform="translate(388.4375, 108.5)"><g class="basic label-container outer-path"><path d="M-380.4375 -89.5 L380.4375 -89.5 L380.4375 89.5 L-380.4375 89.5" stroke="none" stroke-width="0" fill="#ECECFF" style=""/><path d="M-380.4375 -89.5 C-212.02752403064903 -89.5, -43.617548061298066 -89.5, 380.4375 -89.5 M-380.4375 -89.5 C-166.37456671337128 -89.5, 47.68836657325744 -89.5, 380.4375 -89.5 M380.4375 -89.5 C380.4375 -23.312300685452428, 380.4375 42.875398629095145, 380.4375 89.5 M380.4375 -89.5 C380.4375 -38.01451493217931, 380.4375 13.47097013564138, 380.4375 89.5 M380.4375 89.5 C113.84893007041347 89.5, -152.73963985917305 89.5, -380.4375 89.5 M380.4375 89.5 C179.79589783087042 89.5, -20.845704338259168 89.5, -380.4375 89.5 M-380.4375 89.5 C-380.4375 23.06709859562622, -380.4375 -43.36580280874756, -380.4375 -89.5 M-380.4375 89.5 C-380.4375 24.61356605784802, -380.4375 -40.27286788430396, -380.4375 -89.5" stroke="#9370DB" stroke-width="1.3" fill="none" stroke-dasharray="0 0" style=""/></g><g class="annotation-group text" transform="translate(-41.1171875, -69.5)"><g class="label" style="" transform="translate(0,-9.5)"><g><rect class="background" style="stroke: none"/><text y="-10.1" style=""><tspan class="text-outer-tspan row" x="0" y="-0.1em" dy="1.1em"><tspan font-style="normal" class="text-inner-tspan" font-weight="bold">«Interface»</tspan></tspan></text></g></g></g><g class="label-group text" transform="translate(-91.765625, -50.5)"><g class="label" style="font-weight: bolder" transform="translate(0,-9.5)"><g><rect class="background" style="stroke: none"/><text y="-10.1" style=""><tspan class="text-outer-tspan row" x="0" y="-0.1em" dy="1.1em" font-weight=""><tspan font-style="normal" class="text-inner-tspan" font-weight="">VehicleCommandService</tspan></tspan></text></g></g></g><g class="members-group text" transform="translate(-368.4375, -7.5)"/><g class="methods-group text" transform="translate(-368.4375, 22.5)"><g class="label" style="" transform="translate(0,-9.5)"><g><rect class="background" style="stroke: none"/><text y="-10.1" style=""><tspan class="text-outer-tspan row" x="0" y="-0.1em" dy="1.1em"><tspan font-style="normal" class="text-inner-tspan" font-weight="normal">+handle(RegisterVehicleCommand)</tspan><tspan font-style="normal" class="text-inner-tspan" font-weight="normal"> :</tspan><tspan font-style="normal" class="text-inner-tspan" font-weight="normal"> Result&lt;VehicleRegistration,</tspan><tspan font-style="normal" class="text-inner-tspan" font-weight="normal"> VehicleCommandFailure&gt;</tspan></tspan></text></g></g><g class="label" style="" transform="translate(0,12.5)"><g><rect class="background" style="stroke: none"/><text y="-10.1" style=""><tspan class="text-outer-tspan row" x="0" y="-0.1em" dy="1.1em"><tspan font-style="normal" class="text-inner-tspan" font-weight="normal">+handle(UpdateVehicleCommand)</tspan><tspan font-style="normal" class="text-inner-tspan" font-weight="normal"> :</tspan><tspan font-style="normal" class="text-inner-tspan" font-weight="normal"> Result&lt;Vehicle,</tspan><tspan font-style="normal" class="text-inner-tspan" font-weight="normal"> VehicleCommandFailure&gt;</tspan></tspan></text></g></g><g class="label" style="" transform="translate(0,34.5)"><g><rect class="background" style="stroke: none"/><text y="-10.1" style=""><tspan class="text-outer-tspan row" x="0" y="-0.1em" dy="1.1em"><tspan font-style="normal" class="text-inner-tspan" font-weight="normal">+handle(DeleteVehicleCommand)</tspan><tspan font-style="normal" class="text-inner-tspan" font-weight="normal"> :</tspan><tspan font-style="normal" class="text-inner-tspan" font-weight="normal"> Result&lt;Void,</tspan><tspan font-style="normal" class="text-inner-tspan" font-weight="normal"> VehicleCommandFailure&gt;</tspan></tspan></text></g></g></g><g class="divider" style=""><path d="M-380.4375 -27.5 C-113.191923139822 -27.499648765464944, 154.053653720356 -27.499297530929887, 380.4375 -27.499 M-380.4375 -27.5 C-145.92322149227957 -27.49969178343551, 88.59105701544087 -27.499383566871014, 380.4375 -27.499" stroke="#9370DB" stroke-width="1.3" fill="none" stroke-dasharray="0 0" style=""/></g><g class="divider" style=""><path d="M-380.4375 -3.5 C-214.77724353942625 -3.499782276646676, -49.1169870788525 -3.4995645532933515, 380.4375 -3.499 M-380.4375 -3.5 C-178.2209282974863 -3.4997342315469657, 23.99564340502741 -3.4994684630939314, 380.4375 -3.499" stroke="#9370DB" stroke-width="1.3" fill="none" stroke-dasharray="0 0" style=""/></g></g><g class="node default" id="my-svg-classId-VehicleQueryService-1" data-look="classic" transform="translate(1120.26171875, 108.5)"><g class="basic label-container outer-path"><path d="M-301.38671875 -89.5 L301.38671875 -89.5 L301.38671875 89.5 L-301.38671875 89.5" stroke="none" stroke-width="0" fill="#ECECFF" style=""/><path d="M-301.38671875 -89.5 C-64.05540713570952 -89.5, 173.27590447858097 -89.5, 301.38671875 -89.5 M-301.38671875 -89.5 C-175.78089004543153 -89.5, -50.175061340863095 -89.5, 301.38671875 -89.5 M301.38671875 -89.5 C301.38671875 -53.51738877632529, 301.38671875 -17.53477755265058, 301.38671875 89.5 M301.38671875 -89.5 C301.38671875 -41.21505684493921, 301.38671875 7.069886310121575, 301.38671875 89.5 M301.38671875 89.5 C125.2048050304108 89.5, -50.97710868917841 89.5, -301.38671875 89.5 M301.38671875 89.5 C175.87512118367385 89.5, 50.36352361734768 89.5, -301.38671875 89.5 M-301.38671875 89.5 C-301.38671875 34.48872401480352, -301.38671875 -20.522551970392954, -301.38671875 -89.5 M-301.38671875 89.5 C-301.38671875 28.052872154111775, -301.38671875 -33.39425569177645, -301.38671875 -89.5" stroke="#9370DB" stroke-width="1.3" fill="none" stroke-dasharray="0 0" style=""/></g><g class="annotation-group text" transform="translate(-41.1171875, -69.5)"><g class="label" style="" transform="translate(0,-9.5)"><g><rect class="background" style="stroke: none"/><text y="-10.1" style=""><tspan class="text-outer-tspan row" x="0" y="-0.1em" dy="1.1em"><tspan font-style="normal" class="text-inner-tspan" font-weight="bold">«Interface»</tspan></tspan></text></g></g></g><g class="label-group text" transform="translate(-77.6484375, -50.5)"><g class="label" style="font-weight: bolder" transform="translate(0,-9.5)"><g><rect class="background" style="stroke: none"/><text y="-10.1" style=""><tspan class="text-outer-tspan row" x="0" y="-0.1em" dy="1.1em" font-weight=""><tspan font-style="normal" class="text-inner-tspan" font-weight="">VehicleQueryService</tspan></tspan></text></g></g></g><g class="members-group text" transform="translate(-289.38671875, -7.5)"/><g class="methods-group text" transform="translate(-289.38671875, 22.5)"><g class="label" style="" transform="translate(0,-9.5)"><g><rect class="background" style="stroke: none"/><text y="-10.1" style=""><tspan class="text-outer-tspan row" x="0" y="-0.1em" dy="1.1em"><tspan font-style="normal" class="text-inner-tspan" font-weight="normal">+handle(GetVehiclesAvailableForLinkingQuery)</tspan><tspan font-style="normal" class="text-inner-tspan" font-weight="normal"> :</tspan><tspan font-style="normal" class="text-inner-tspan" font-weight="normal"> Result&lt;List</tspan></tspan></text></g></g><g class="label" style="" transform="translate(0,12.5)"><g><rect class="background" style="stroke: none"/><text y="-10.1" style=""><tspan class="text-outer-tspan row" x="0" y="-0.1em" dy="1.1em"><tspan font-style="normal" class="text-inner-tspan" font-weight="normal">+handle(GetActiveVehiclesByCustomerIdQuery)</tspan><tspan font-style="normal" class="text-inner-tspan" font-weight="normal"> :</tspan><tspan font-style="normal" class="text-inner-tspan" font-weight="normal"> Result&lt;List</tspan></tspan></text></g></g><g class="label" style="" transform="translate(0,34.5)"><g><rect class="background" style="stroke: none"/><text y="-10.1" style=""><tspan class="text-outer-tspan row" x="0" y="-0.1em" dy="1.1em"><tspan font-style="normal" class="text-inner-tspan" font-weight="normal">+handle(GetVehicleByIdQuery)</tspan><tspan font-style="normal" class="text-inner-tspan" font-weight="normal"> :</tspan><tspan font-style="normal" class="text-inner-tspan" font-weight="normal"> Result&lt;Vehicle,</tspan><tspan font-style="normal" class="text-inner-tspan" font-weight="normal"> VehicleQueryFailure&gt;</tspan></tspan></text></g></g></g><g class="divider" style=""><path d="M-301.38671875 -27.5 C-172.04921236045158 -27.499785429319967, -42.711705970903154 -27.499570858639935, 301.38671875 -27.499 M-301.38671875 -27.5 C-119.83987699480008 -27.499698814130713, 61.70696476039984 -27.49939762826143, 301.38671875 -27.499" stroke="#9370DB" stroke-width="1.3" fill="none" stroke-dasharray="0 0" style=""/></g><g class="divider" style=""><path d="M-301.38671875 -3.5 C-89.27259987167514 -3.499648103075414, 122.84151900664972 -3.499296206150828, 301.38671875 -3.499 M-301.38671875 -3.5 C-165.2826291785506 -3.499774203571186, -29.178539607101186 -3.499548407142372, 301.38671875 -3.499" stroke="#9370DB" stroke-width="1.3" fill="none" stroke-dasharray="0 0" style=""/></g></g><g class="node default" id="my-svg-classId-Obd2DeviceCommandService-2" data-look="classic" transform="translate(1864.24609375, 108.5)"><g class="basic label-container outer-path"><path d="M-392.59765625 -89.5 L392.59765625 -89.5 L392.59765625 89.5 L-392.59765625 89.5" stroke="none" stroke-width="0" fill="#ECECFF" style=""/><path d="M-392.59765625 -89.5 C-168.8943381390753 -89.5, 54.808979971849396 -89.5, 392.59765625 -89.5 M-392.59765625 -89.5 C-165.79689534820557 -89.5, 61.00386555358887 -89.5, 392.59765625 -89.5 M392.59765625 -89.5 C392.59765625 -52.6281253235941, 392.59765625 -15.756250647188196, 392.59765625 89.5 M392.59765625 -89.5 C392.59765625 -33.33075880724031, 392.59765625 22.838482385519384, 392.59765625 89.5 M392.59765625 89.5 C109.81988096848028 89.5, -172.95789431303945 89.5, -392.59765625 89.5 M392.59765625 89.5 C144.48354104396125 89.5, -103.6305741620775 89.5, -392.59765625 89.5 M-392.59765625 89.5 C-392.59765625 50.90566611451753, -392.59765625 12.31133222903506, -392.59765625 -89.5 M-392.59765625 89.5 C-392.59765625 40.83067959301912, -392.59765625 -7.83864081396176, -392.59765625 -89.5" stroke="#9370DB" stroke-width="1.3" fill="none" stroke-dasharray="0 0" style=""/></g><g class="annotation-group text" transform="translate(-41.1171875, -69.5)"><g class="label" style="" transform="translate(0,-9.5)"><g><rect class="background" style="stroke: none"/><text y="-10.1" style=""><tspan class="text-outer-tspan row" x="0" y="-0.1em" dy="1.1em"><tspan font-style="normal" class="text-inner-tspan" font-weight="bold">«Interface»</tspan></tspan></text></g></g></g><g class="label-group text" transform="translate(-109.3515625, -50.5)"><g class="label" style="font-weight: bolder" transform="translate(0,-9.5)"><g><rect class="background" style="stroke: none"/><text y="-10.1" style=""><tspan class="text-outer-tspan row" x="0" y="-0.1em" dy="1.1em" font-weight=""><tspan font-style="normal" class="text-inner-tspan" font-weight="">Obd2DeviceCommandService</tspan></tspan></text></g></g></g><g class="members-group text" transform="translate(-380.59765625, -7.5)"/><g class="methods-group text" transform="translate(-380.59765625, 22.5)"><g class="label" style="" transform="translate(0,-9.5)"><g><rect class="background" style="stroke: none"/><text y="-10.1" style=""><tspan class="text-outer-tspan row" x="0" y="-0.1em" dy="1.1em"><tspan font-style="normal" class="text-inner-tspan" font-weight="normal">+handle(CreateObd2DeviceCommand)</tspan><tspan font-style="normal" class="text-inner-tspan" font-weight="normal"> :</tspan><tspan font-style="normal" class="text-inner-tspan" font-weight="normal"> Result&lt;Obd2Device,</tspan><tspan font-style="normal" class="text-inner-tspan" font-weight="normal"> Obd2DeviceCommandFailure&gt;</tspan></tspan></text></g></g><g class="label" style="" transform="translate(0,12.5)"><g><rect class="background" style="stroke: none"/><text y="-10.1" style=""><tspan class="text-outer-tspan row" x="0" y="-0.1em" dy="1.1em"><tspan font-style="normal" class="text-inner-tspan" font-weight="normal">+handle(DeleteObd2DeviceCommand)</tspan><tspan font-style="normal" class="text-inner-tspan" font-weight="normal"> :</tspan><tspan font-style="normal" class="text-inner-tspan" font-weight="normal"> Result&lt;Void,</tspan><tspan font-style="normal" class="text-inner-tspan" font-weight="normal"> Obd2DeviceCommandFailure&gt;</tspan></tspan></text></g></g><g class="label" style="" transform="translate(0,34.5)"><g><rect class="background" style="stroke: none"/><text y="-10.1" style=""><tspan class="text-outer-tspan row" x="0" y="-0.1em" dy="1.1em"><tspan font-style="normal" class="text-inner-tspan" font-weight="normal">+handle(UpdateObd2DeviceCommand)</tspan><tspan font-style="normal" class="text-inner-tspan" font-weight="normal"> :</tspan><tspan font-style="normal" class="text-inner-tspan" font-weight="normal"> Result&lt;Obd2Device,</tspan><tspan font-style="normal" class="text-inner-tspan" font-weight="normal"> Obd2DeviceCommandFailure&gt;</tspan></tspan></text></g></g></g><g class="divider" style=""><path d="M-392.59765625 -27.5 C-119.60960318729121 -27.499652331020425, 153.37844987541757 -27.499304662040853, 392.59765625 -27.499 M-392.59765625 -27.5 C-229.6382834296862 -27.499792460079387, -66.6789106093724 -27.499584920158778, 392.59765625 -27.499" stroke="#9370DB" stroke-width="1.3" fill="none" stroke-dasharray="0 0" style=""/></g><g class="divider" style=""><path d="M-392.59765625 -3.5 C-80.96921086298153 -3.499603119834739, 230.65923452403695 -3.4992062396694785, 392.59765625 -3.499 M-392.59765625 -3.5 C-148.83312936563846 -3.499689549182218, 94.93139751872309 -3.4993790983644355, 392.59765625 -3.499" stroke="#9370DB" stroke-width="1.3" fill="none" stroke-dasharray="0 0" style=""/></g></g><g class="node default" id="my-svg-classId-Obd2DeviceQueryService-3" data-look="classic" transform="translate(2666.2578125, 108.5)"><g class="basic label-container outer-path"><path d="M-359.4140625 -89.5 L359.4140625 -89.5 L359.4140625 89.5 L-359.4140625 89.5" stroke="none" stroke-width="0" fill="#ECECFF" style=""/><path d="M-359.4140625 -89.5 C-202.01627023159347 -89.5, -44.61847796318693 -89.5, 359.4140625 -89.5 M-359.4140625 -89.5 C-161.86003050253765 -89.5, 35.69400149492469 -89.5, 359.4140625 -89.5 M359.4140625 -89.5 C359.4140625 -24.72312335402401, 359.4140625 40.05375329195198, 359.4140625 89.5 M359.4140625 -89.5 C359.4140625 -29.95052575007704, 359.4140625 29.598948499845918, 359.4140625 89.5 M359.4140625 89.5 C81.87999466182441 89.5, -195.65407317635118 89.5, -359.4140625 89.5 M359.4140625 89.5 C196.98648615481198 89.5, 34.55890980962397 89.5, -359.4140625 89.5 M-359.4140625 89.5 C-359.4140625 46.27138947207686, -359.4140625 3.0427789441537243, -359.4140625 -89.5 M-359.4140625 89.5 C-359.4140625 22.39783162939318, -359.4140625 -44.70433674121364, -359.4140625 -89.5" stroke="#9370DB" stroke-width="1.3" fill="none" stroke-dasharray="0 0" style=""/></g><g class="annotation-group text" transform="translate(-41.1171875, -69.5)"><g class="label" style="" transform="translate(0,-9.5)"><g><rect class="background" style="stroke: none"/><text y="-10.1" style=""><tspan class="text-outer-tspan row" x="0" y="-0.1em" dy="1.1em"><tspan font-style="normal" class="text-inner-tspan" font-weight="bold">«Interface»</tspan></tspan></text></g></g></g><g class="label-group text" transform="translate(-95.234375, -50.5)"><g class="label" style="font-weight: bolder" transform="translate(0,-9.5)"><g><rect class="background" style="stroke: none"/><text y="-10.1" style=""><tspan class="text-outer-tspan row" x="0" y="-0.1em" dy="1.1em" font-weight=""><tspan font-style="normal" class="text-inner-tspan" font-weight="">Obd2DeviceQueryService</tspan></tspan></text></g></g></g><g class="members-group text" transform="translate(-347.4140625, -7.5)"/><g class="methods-group text" transform="translate(-347.4140625, 22.5)"><g class="label" style="" transform="translate(0,-9.5)"><g><rect class="background" style="stroke: none"/><text y="-10.1" style=""><tspan class="text-outer-tspan row" x="0" y="-0.1em" dy="1.1em"><tspan font-style="normal" class="text-inner-tspan" font-weight="normal">+handle(GetObd2DeviceByIdQuery)</tspan><tspan font-style="normal" class="text-inner-tspan" font-weight="normal"> :</tspan><tspan font-style="normal" class="text-inner-tspan" font-weight="normal"> Result&lt;Obd2Device,</tspan><tspan font-style="normal" class="text-inner-tspan" font-weight="normal"> Obd2DeviceQueryFailure&gt;</tspan></tspan></text></g></g><g class="label" style="" transform="translate(0,12.5)"><g><rect class="background" style="stroke: none"/><text y="-10.1" style=""><tspan class="text-outer-tspan row" x="0" y="-0.1em" dy="1.1em"><tspan font-style="normal" class="text-inner-tspan" font-weight="normal">+handle(GetObd2DevicesByBranchIdQuery)</tspan><tspan font-style="normal" class="text-inner-tspan" font-weight="normal"> :</tspan><tspan font-style="normal" class="text-inner-tspan" font-weight="normal"> Result&lt;List</tspan></tspan></text></g></g><g class="label" style="" transform="translate(0,34.5)"><g><rect class="background" style="stroke: none"/><text y="-10.1" style=""><tspan class="text-outer-tspan row" x="0" y="-0.1em" dy="1.1em"><tspan font-style="normal" class="text-inner-tspan" font-weight="normal">+handle(GetAvailableObd2DevicesQuery)</tspan><tspan font-style="normal" class="text-inner-tspan" font-weight="normal"> :</tspan><tspan font-style="normal" class="text-inner-tspan" font-weight="normal"> Result&lt;List</tspan></tspan></text></g></g></g><g class="divider" style=""><path d="M-359.4140625 -27.5 C-137.03468466536677 -27.499690636231247, 85.34469316926646 -27.499381272462497, 359.4140625 -27.499 M-359.4140625 -27.5 C-88.47114003804319 -27.499623076903866, 182.47178242391362 -27.499246153807736, 359.4140625 -27.499" stroke="#9370DB" stroke-width="1.3" fill="none" stroke-dasharray="0 0" style=""/></g><g class="divider" style=""><path d="M-359.4140625 -3.5 C-177.8977944033079 -3.4997474830744877, 3.618473693384203 -3.499494966148976, 359.4140625 -3.499 M-359.4140625 -3.5 C-98.71966113025218 -3.4996373341661196, 161.97474023949565 -3.4992746683322395, 359.4140625 -3.499" stroke="#9370DB" stroke-width="1.3" fill="none" stroke-dasharray="0 0" style=""/></g></g><g class="node default" id="my-svg-classId-Obd2DeviceRegistrationCommandService-4" data-look="classic" transform="translate(3631.84375, 108.5)"><g class="basic label-container outer-path"><path d="M-556.171875 -78.5 L556.171875 -78.5 L556.171875 78.5 L-556.171875 78.5" stroke="none" stroke-width="0" fill="#ECECFF" style=""/><path d="M-556.171875 -78.5 C-195.26012738867382 -78.5, 165.65162022265235 -78.5, 556.171875 -78.5 M-556.171875 -78.5 C-186.16838802173345 -78.5, 183.8350989565331 -78.5, 556.171875 -78.5 M556.171875 -78.5 C556.171875 -46.59309937004464, 556.171875 -14.686198740089274, 556.171875 78.5 M556.171875 -78.5 C556.171875 -44.30620982666295, 556.171875 -10.112419653325901, 556.171875 78.5 M556.171875 78.5 C173.96882245839822 78.5, -208.23423008320356 78.5, -556.171875 78.5 M556.171875 78.5 C186.47914324868316 78.5, -183.21358850263368 78.5, -556.171875 78.5 M-556.171875 78.5 C-556.171875 24.27554480775376, -556.171875 -29.94891038449248, -556.171875 -78.5 M-556.171875 78.5 C-556.171875 46.3612915181652, -556.171875 14.222583036330406, -556.171875 -78.5" stroke="#9370DB" stroke-width="1.3" fill="none" stroke-dasharray="0 0" style=""/></g><g class="annotation-group text" transform="translate(-41.1171875, -58.5)"><g class="label" style="" transform="translate(0,-9.5)"><g><rect class="background" style="stroke: none"/><text y="-10.1" style=""><tspan class="text-outer-tspan row" x="0" y="-0.1em" dy="1.1em"><tspan font-style="normal" class="text-inner-tspan" font-weight="bold">«Interface»</tspan></tspan></text></g></g></g><g class="label-group text" transform="translate(-154.09375, -39.5)"><g class="label" style="font-weight: bolder" transform="translate(0,-9.5)"><g><rect class="background" style="stroke: none"/><text y="-10.1" style=""><tspan class="text-outer-tspan row" x="0" y="-0.1em" dy="1.1em" font-weight=""><tspan font-style="normal" class="text-inner-tspan" font-weight="">Obd2DeviceRegistrationCommandService</tspan></tspan></text></g></g></g><g class="members-group text" transform="translate(-544.171875, 3.5)"/><g class="methods-group text" transform="translate(-544.171875, 33.5)"><g class="label" style="" transform="translate(0,-9.5)"><g><rect class="background" style="stroke: none"/><text y="-10.1" style=""><tspan class="text-outer-tspan row" x="0" y="-0.1em" dy="1.1em"><tspan font-style="normal" class="text-inner-tspan" font-weight="normal">+handle(LinkObd2DeviceToVehicleCommand)</tspan><tspan font-style="normal" class="text-inner-tspan" font-weight="normal"> :</tspan><tspan font-style="normal" class="text-inner-tspan" font-weight="normal"> Result&lt;Obd2DeviceRegistration,</tspan><tspan font-style="normal" class="text-inner-tspan" font-weight="normal"> Obd2DeviceRegistrationCommandFailure&gt;</tspan></tspan></text></g></g><g class="label" style="" transform="translate(0,12.5)"><g><rect class="background" style="stroke: none"/><text y="-10.1" style=""><tspan class="text-outer-tspan row" x="0" y="-0.1em" dy="1.1em"><tspan font-style="normal" class="text-inner-tspan" font-weight="normal">+handle(DeactivateObd2DeviceRegistrationCommand)</tspan><tspan font-style="normal" class="text-inner-tspan" font-weight="normal"> :</tspan><tspan font-style="normal" class="text-inner-tspan" font-weight="normal"> Result&lt;Obd2DeviceRegistration,</tspan><tspan font-style="normal" class="text-inner-tspan" font-weight="normal"> Obd2DeviceRegistrationCommandFailure&gt;</tspan></tspan></text></g></g></g><g class="divider" style=""><path d="M-556.171875 -16.5 C-264.0061790748067 -16.499737342259596, 28.15951685038658 -16.499474684519196, 556.171875 -16.499 M-556.171875 -16.5 C-232.18602098276324 -16.499708735852547, 91.79983303447352 -16.499417471705094, 556.171875 -16.499" stroke="#9370DB" stroke-width="1.3" fill="none" stroke-dasharray="0 0" style=""/></g><g class="divider" style=""><path d="M-556.171875 7.5 C-193.42429533369193 7.500326111042262, 169.32328433261614 7.500652222084525, 556.171875 7.501 M-556.171875 7.5 C-272.965958034422 7.500254602875205, 10.239958931156025 7.500509205750409, 556.171875 7.501" stroke="#9370DB" stroke-width="1.3" fill="none" stroke-dasharray="0 0" style=""/></g></g><g class="node default" id="my-svg-classId-Obd2DeviceRegistrationQueryService-5" data-look="classic" transform="translate(4598.49609375, 108.5)"><g class="basic label-container outer-path"><path d="M-360.48046875 -67.5 L360.48046875 -67.5 L360.48046875 67.5 L-360.48046875 67.5" stroke="none" stroke-width="0" fill="#ECECFF" style=""/><path d="M-360.48046875 -67.5 C-131.4969050139835 -67.5, 97.48665872203298 -67.5, 360.48046875 -67.5 M-360.48046875 -67.5 C-153.16433650026897 -67.5, 54.15179574946205 -67.5, 360.48046875 -67.5 M360.48046875 -67.5 C360.48046875 -39.65378916079589, 360.48046875 -11.807578321591777, 360.48046875 67.5 M360.48046875 -67.5 C360.48046875 -30.794367976258982, 360.48046875 5.911264047482035, 360.48046875 67.5 M360.48046875 67.5 C205.66837035936197 67.5, 50.856271968723945 67.5, -360.48046875 67.5 M360.48046875 67.5 C187.55566690192873 67.5, 14.630865053857462 67.5, -360.48046875 67.5 M-360.48046875 67.5 C-360.48046875 28.724914136608348, -360.48046875 -10.050171726783304, -360.48046875 -67.5 M-360.48046875 67.5 C-360.48046875 40.248621782378656, -360.48046875 12.997243564757312, -360.48046875 -67.5" stroke="#9370DB" stroke-width="1.3" fill="none" stroke-dasharray="0 0" style=""/></g><g class="annotation-group text" transform="translate(-41.1171875, -47.5)"><g class="label" style="" transform="translate(0,-9.5)"><g><rect class="background" style="stroke: none"/><text y="-10.1" style=""><tspan class="text-outer-tspan row" x="0" y="-0.1em" dy="1.1em"><tspan font-style="normal" class="text-inner-tspan" font-weight="bold">«Interface»</tspan></tspan></text></g></g></g><g class="label-group text" transform="translate(-139.9765625, -28.5)"><g class="label" style="font-weight: bolder" transform="translate(0,-9.5)"><g><rect class="background" style="stroke: none"/><text y="-10.1" style=""><tspan class="text-outer-tspan row" x="0" y="-0.1em" dy="1.1em" font-weight=""><tspan font-style="normal" class="text-inner-tspan" font-weight="">Obd2DeviceRegistrationQueryService</tspan></tspan></text></g></g></g><g class="members-group text" transform="translate(-348.48046875, 14.5)"/><g class="methods-group text" transform="translate(-348.48046875, 44.5)"><g class="label" style="" transform="translate(0,-9.5)"><g><rect class="background" style="stroke: none"/><text y="-10.1" style=""><tspan class="text-outer-tspan row" x="0" y="-0.1em" dy="1.1em"><tspan font-style="normal" class="text-inner-tspan" font-weight="normal">+handle(GetObd2DeviceRegistrationsByBranchIdAndStatusQuery)</tspan><tspan font-style="normal" class="text-inner-tspan" font-weight="normal"> :</tspan><tspan font-style="normal" class="text-inner-tspan" font-weight="normal"> Result&lt;List</tspan></tspan></text></g></g></g><g class="divider" style=""><path d="M-360.48046875 -5.5 C-195.39942106768862 -5.499771026363432, -30.318373385377242 -5.4995420527268655, 360.48046875 -5.499 M-360.48046875 -5.5 C-106.60077459793823 -5.499647859293137, 147.27891955412355 -5.499295718586273, 360.48046875 -5.499" stroke="#9370DB" stroke-width="1.3" fill="none" stroke-dasharray="0 0" style=""/></g><g class="divider" style=""><path d="M-360.48046875 18.5 C-135.07654367924 18.500312643741633, 90.32738139152002 18.500625287483267, 360.48046875 18.501 M-360.48046875 18.5 C-145.81909801206405 18.500297743413785, 68.84227272587191 18.500595486827574, 360.48046875 18.501" stroke="#9370DB" stroke-width="1.3" fill="none" stroke-dasharray="0 0" style=""/></g></g><g class="node default" id="my-svg-classId-TelemetryCommandService-6" data-look="classic" transform="translate(5265.86328125, 108.5)"><g class="basic label-container outer-path"><path d="M-256.88671875 -67.5 L256.88671875 -67.5 L256.88671875 67.5 L-256.88671875 67.5" stroke="none" stroke-width="0" fill="#ECECFF" style=""/><path d="M-256.88671875 -67.5 C-109.20408488944858 -67.5, 38.47854897110284 -67.5, 256.88671875 -67.5 M-256.88671875 -67.5 C-91.94707351654665 -67.5, 72.9925717169067 -67.5, 256.88671875 -67.5 M256.88671875 -67.5 C256.88671875 -40.45924169679666, 256.88671875 -13.41848339359332, 256.88671875 67.5 M256.88671875 -67.5 C256.88671875 -14.683992746970475, 256.88671875 38.13201450605905, 256.88671875 67.5 M256.88671875 67.5 C90.5385169257157 67.5, -75.8096848985686 67.5, -256.88671875 67.5 M256.88671875 67.5 C68.61999057722983 67.5, -119.64673759554034 67.5, -256.88671875 67.5 M-256.88671875 67.5 C-256.88671875 17.06835552699279, -256.88671875 -33.36328894601442, -256.88671875 -67.5 M-256.88671875 67.5 C-256.88671875 40.13584363523977, -256.88671875 12.771687270479546, -256.88671875 -67.5" stroke="#9370DB" stroke-width="1.3" fill="none" stroke-dasharray="0 0" style=""/></g><g class="annotation-group text" transform="translate(-41.1171875, -47.5)"><g class="label" style="" transform="translate(0,-9.5)"><g><rect class="background" style="stroke: none"/><text y="-10.1" style=""><tspan class="text-outer-tspan row" x="0" y="-0.1em" dy="1.1em"><tspan font-style="normal" class="text-inner-tspan" font-weight="bold">«Interface»</tspan></tspan></text></g></g></g><g class="label-group text" transform="translate(-102.3515625, -28.5)"><g class="label" style="font-weight: bolder" transform="translate(0,-9.5)"><g><rect class="background" style="stroke: none"/><text y="-10.1" style=""><tspan class="text-outer-tspan row" x="0" y="-0.1em" dy="1.1em" font-weight=""><tspan font-style="normal" class="text-inner-tspan" font-weight="">TelemetryCommandService</tspan></tspan></text></g></g></g><g class="members-group text" transform="translate(-244.88671875, 14.5)"/><g class="methods-group text" transform="translate(-244.88671875, 44.5)"><g class="label" style="" transform="translate(0,-9.5)"><g><rect class="background" style="stroke: none"/><text y="-10.1" style=""><tspan class="text-outer-tspan row" x="0" y="-0.1em" dy="1.1em"><tspan font-style="normal" class="text-inner-tspan" font-weight="normal">+handle(IngestTelemetryBatchCommand)</tspan><tspan font-style="normal" class="text-inner-tspan" font-weight="normal"> :</tspan><tspan font-style="normal" class="text-inner-tspan" font-weight="normal"> Result&lt;List</tspan></tspan></text></g></g></g><g class="divider" style=""><path d="M-256.88671875 -5.5 C-93.61451085374793 -5.499682209713506, 69.65769704250414 -5.499364419427011, 256.88671875 -5.499 M-256.88671875 -5.5 C-82.29956438995208 -5.499660186491521, 92.28758997009584 -5.499320372983043, 256.88671875 -5.499" stroke="#9370DB" stroke-width="1.3" fill="none" stroke-dasharray="0 0" style=""/></g><g class="divider" style=""><path d="M-256.88671875 18.5 C-120.43163246116526 18.500265593890866, 16.02345382766947 18.500531187781732, 256.88671875 18.501 M-256.88671875 18.5 C-62.06425284261579 18.50037919917942, 132.75821306476843 18.50075839835884, 256.88671875 18.501" stroke="#9370DB" stroke-width="1.3" fill="none" stroke-dasharray="0 0" style=""/></g></g><g class="node default" id="my-svg-classId-TelemetryQueryService-7" data-look="classic" transform="translate(5980.4765625, 108.5)"><g class="basic label-container outer-path"><path d="M-407.7265625 -100.5 L407.7265625 -100.5 L407.7265625 100.5 L-407.7265625 100.5" stroke="none" stroke-width="0" fill="#ECECFF" style=""/><path d="M-407.7265625 -100.5 C-192.16262313105284 -100.5, 23.40131623789432 -100.5, 407.7265625 -100.5 M-407.7265625 -100.5 C-96.655960116421 -100.5, 214.414642267158 -100.5, 407.7265625 -100.5 M407.7265625 -100.5 C407.7265625 -40.31982465928781, 407.7265625 19.86035068142438, 407.7265625 100.5 M407.7265625 -100.5 C407.7265625 -40.170186461625626, 407.7265625 20.159627076748748, 407.7265625 100.5 M407.7265625 100.5 C145.86493211204197 100.5, -115.99669827591606 100.5, -407.7265625 100.5 M407.7265625 100.5 C195.42861956635176 100.5, -16.869323367296488 100.5, -407.7265625 100.5 M-407.7265625 100.5 C-407.7265625 45.9491482385469, -407.7265625 -8.601703522906206, -407.7265625 -100.5 M-407.7265625 100.5 C-407.7265625 36.03352448878263, -407.7265625 -28.432951022434736, -407.7265625 -100.5" stroke="#9370DB" stroke-width="1.3" fill="none" stroke-dasharray="0 0" style=""/></g><g class="annotation-group text" transform="translate(-41.1171875, -80.5)"><g class="label" style="" transform="translate(0,-9.5)"><g><rect class="background" style="stroke: none"/><text y="-10.1" style=""><tspan class="text-outer-tspan row" x="0" y="-0.1em" dy="1.1em"><tspan font-style="normal" class="text-inner-tspan" font-weight="bold">«Interface»</tspan></tspan></text></g></g></g><g class="label-group text" transform="translate(-88.234375, -61.5)"><g class="label" style="font-weight: bolder" transform="translate(0,-9.5)"><g><rect class="background" style="stroke: none"/><text y="-10.1" style=""><tspan class="text-outer-tspan row" x="0" y="-0.1em" dy="1.1em" font-weight=""><tspan font-style="normal" class="text-inner-tspan" font-weight="">TelemetryQueryService</tspan></tspan></text></g></g></g><g class="members-group text" transform="translate(-395.7265625, -18.5)"/><g class="methods-group text" transform="translate(-395.7265625, 11.5)"><g class="label" style="" transform="translate(0,-9.5)"><g><rect class="background" style="stroke: none"/><text y="-10.1" style=""><tspan class="text-outer-tspan row" x="0" y="-0.1em" dy="1.1em"><tspan font-style="normal" class="text-inner-tspan" font-weight="normal">+handle(GetLatestTelemetrySnapshotQuery)</tspan><tspan font-style="normal" class="text-inner-tspan" font-weight="normal"> :</tspan><tspan font-style="normal" class="text-inner-tspan" font-weight="normal"> Result&lt;TelemetrySnapshot,</tspan><tspan font-style="normal" class="text-inner-tspan" font-weight="normal"> TelemetryQueryFailure&gt;</tspan></tspan></text></g></g><g class="label" style="" transform="translate(0,12.5)"><g><rect class="background" style="stroke: none"/><text y="-10.1" style=""><tspan class="text-outer-tspan row" x="0" y="-0.1em" dy="1.1em"><tspan font-style="normal" class="text-inner-tspan" font-weight="normal">+handle(GetTelemetrySnapshotHistoryQuery)</tspan><tspan font-style="normal" class="text-inner-tspan" font-weight="normal"> :</tspan><tspan font-style="normal" class="text-inner-tspan" font-weight="normal"> Result&lt;List</tspan></tspan></text></g></g><g class="label" style="" transform="translate(0,34.5)"><g><rect class="background" style="stroke: none"/><text y="-10.1" style=""><tspan class="text-outer-tspan row" x="0" y="-0.1em" dy="1.1em"><tspan font-style="normal" class="text-inner-tspan" font-weight="normal">+handle(GetTelemetrySnapshotsByRegistrationIdQuery)</tspan><tspan font-style="normal" class="text-inner-tspan" font-weight="normal"> :</tspan><tspan font-style="normal" class="text-inner-tspan" font-weight="normal"> Result&lt;List</tspan></tspan></text></g></g><g class="label" style="" transform="translate(0,56.5)"><g><rect class="background" style="stroke: none"/><text y="-10.1" style=""><tspan class="text-outer-tspan row" x="0" y="-0.1em" dy="1.1em"><tspan font-style="normal" class="text-inner-tspan" font-weight="normal">+handle(GetVehicleTelemetrySnapshotHistoryQuery)</tspan><tspan font-style="normal" class="text-inner-tspan" font-weight="normal"> :</tspan><tspan font-style="normal" class="text-inner-tspan" font-weight="normal"> Result&lt;List</tspan></tspan></text></g></g></g><g class="divider" style=""><path d="M-407.7265625 -38.5 C-223.03742322966428 -38.499773513481514, -38.34828395932857 -38.49954702696303, 407.7265625 -38.499 M-407.7265625 -38.5 C-109.96328886116152 -38.49963484930708, 187.79998477767697 -38.49926969861416, 407.7265625 -38.499" stroke="#9370DB" stroke-width="1.3" fill="none" stroke-dasharray="0 0" style=""/></g><g class="divider" style=""><path d="M-407.7265625 -14.5 C-84.06743750431303 -14.499603092912306, 239.59168749137393 -14.49920618582461, 407.7265625 -14.499 M-407.7265625 -14.5 C-229.13324454304689 -14.499780988860694, -50.53992658609377 -14.499561977721388, 407.7265625 -14.499" stroke="#9370DB" stroke-width="1.3" fill="none" stroke-dasharray="0 0" style=""/></g></g><g class="node default" id="my-svg-classId-DtcAlertQueryService-8" data-look="classic" transform="translate(6696.75, 108.5)"><g class="basic label-container outer-path"><path d="M-258.546875 -78.5 L258.546875 -78.5 L258.546875 78.5 L-258.546875 78.5" stroke="none" stroke-width="0" fill="#ECECFF" style=""/><path d="M-258.546875 -78.5 C-58.631883128282766 -78.5, 141.28310874343447 -78.5, 258.546875 -78.5 M-258.546875 -78.5 C-76.29696452699173 -78.5, 105.95294594601654 -78.5, 258.546875 -78.5 M258.546875 -78.5 C258.546875 -21.35980934308347, 258.546875 35.78038131383306, 258.546875 78.5 M258.546875 -78.5 C258.546875 -46.78682946878826, 258.546875 -15.073658937576525, 258.546875 78.5 M258.546875 78.5 C148.91127400668674 78.5, 39.27567301337348 78.5, -258.546875 78.5 M258.546875 78.5 C57.701924376655455 78.5, -143.1430262466891 78.5, -258.546875 78.5 M-258.546875 78.5 C-258.546875 41.754837113445866, -258.546875 5.0096742268917325, -258.546875 -78.5 M-258.546875 78.5 C-258.546875 43.42975714099855, -258.546875 8.359514281997093, -258.546875 -78.5" stroke="#9370DB" stroke-width="1.3" fill="none" stroke-dasharray="0 0" style=""/></g><g class="annotation-group text" transform="translate(-41.1171875, -58.5)"><g class="label" style="" transform="translate(0,-9.5)"><g><rect class="background" style="stroke: none"/><text y="-10.1" style=""><tspan class="text-outer-tspan row" x="0" y="-0.1em" dy="1.1em"><tspan font-style="normal" class="text-inner-tspan" font-weight="bold">«Interface»</tspan></tspan></text></g></g></g><g class="label-group text" transform="translate(-81.359375, -39.5)"><g class="label" style="font-weight: bolder" transform="translate(0,-9.5)"><g><rect class="background" style="stroke: none"/><text y="-10.1" style=""><tspan class="text-outer-tspan row" x="0" y="-0.1em" dy="1.1em" font-weight=""><tspan font-style="normal" class="text-inner-tspan" font-weight="">DtcAlertQueryService</tspan></tspan></text></g></g></g><g class="members-group text" transform="translate(-246.546875, 3.5)"/><g class="methods-group text" transform="translate(-246.546875, 33.5)"><g class="label" style="" transform="translate(0,-9.5)"><g><rect class="background" style="stroke: none"/><text y="-10.1" style=""><tspan class="text-outer-tspan row" x="0" y="-0.1em" dy="1.1em"><tspan font-style="normal" class="text-inner-tspan" font-weight="normal">+handle(GetDtcAlertsByRegistrationIdQuery)</tspan><tspan font-style="normal" class="text-inner-tspan" font-weight="normal"> :</tspan><tspan font-style="normal" class="text-inner-tspan" font-weight="normal"> Result&lt;List</tspan></tspan></text></g></g><g class="label" style="" transform="translate(0,12.5)"><g><rect class="background" style="stroke: none"/><text y="-10.1" style=""><tspan class="text-outer-tspan row" x="0" y="-0.1em" dy="1.1em"><tspan font-style="normal" class="text-inner-tspan" font-weight="normal">+handle(GetVehicleDtcAlertHistoryQuery)</tspan><tspan font-style="normal" class="text-inner-tspan" font-weight="normal"> :</tspan><tspan font-style="normal" class="text-inner-tspan" font-weight="normal"> Result&lt;List</tspan></tspan></text></g></g></g><g class="divider" style=""><path d="M-258.546875 -16.5 C-67.51187878116792 -16.499630560229708, 123.52311743766415 -16.49926112045942, 258.546875 -16.499 M-258.546875 -16.5 C-69.33328713982391 -16.499634082624553, 119.88030072035218 -16.499268165249106, 258.546875 -16.499" stroke="#9370DB" stroke-width="1.3" fill="none" stroke-dasharray="0 0" style=""/></g><g class="divider" style=""><path d="M-258.546875 7.5 C-83.06432562898539 7.500339363122008, 92.41822374202923 7.500678726244017, 258.546875 7.501 M-258.546875 7.5 C-117.4180775311797 7.5002729269063275, 23.71071993764059 7.500545853812655, 258.546875 7.501" stroke="#9370DB" stroke-width="1.3" fill="none" stroke-dasharray="0 0" style=""/></g></g></g></g></g><defs><filter id="my-svg-drop-shadow" height="130%" width="130%"><feDropShadow dx="4" dy="4" stdDeviation="0" flood-opacity="0.06" flood-color="#000000"/></filter></defs><defs><filter id="my-svg-drop-shadow-small" height="150%" width="150%"><feDropShadow dx="2" dy="2" stdDeviation="0" flood-opacity="0.06" flood-color="#000000"/></filter></defs></svg>