<?xml version="1.0" encoding="UTF-8"?>
<?xml-stylesheet href="https://cdnjs.cloudflare.com/ajax/libs/font-awesome/7.3.1/css/all.min.css" type="text/css"?>
<svg id="graph-75" width="2508.02294921875" xmlns="http://www.w3.org/2000/svg" class="classDiagram" style="overflow: hidden; max-width: 100%; touch-action: none; user-select: none;" role="graphics-document document" aria-roledescription="class" height="462" xmlns:xlink="http://www.w3.org/1999/xlink" xmlns:ev="http://www.w3.org/2001/xml-events" viewBox="0 0 2508.02294921875 462"><defs><filter id="graph-75-drop-shadow" height="130%" width="130%"><feDropShadow dx="4" dy="4" stdDeviation="0" flood-opacity="0.06" flood-color="#000000"></feDropShadow></filter></defs><defs><filter id="graph-75-drop-shadow-small" height="150%" width="150%"><feDropShadow dx="2" dy="2" stdDeviation="0" flood-opacity="0.06" flood-color="#000000"></feDropShadow></filter></defs><g id="viewport-20260916021731709" class="" style=""><style>#graph-75{font-family:"trebuchet ms",verdana,arial,sans-serif;font-size:16px;fill:#333;}@keyframes edge-animation-frame{from{stroke-dashoffset:0;}}@keyframes dash{to{stroke-dashoffset:0;}}#graph-75 .edge-animation-slow{stroke-dasharray:9,5!important;stroke-dashoffset:900;animation:dash 50s linear infinite;stroke-linecap:round;}#graph-75 .edge-animation-fast{stroke-dasharray:9,5!important;stroke-dashoffset:900;animation:dash 20s linear infinite;stroke-linecap:round;}#graph-75 .error-icon{fill:#552222;}#graph-75 .error-text{fill:#552222;stroke:#552222;}#graph-75 .edge-thickness-normal{stroke-width:1px;}#graph-75 .edge-thickness-thick{stroke-width:3.5px;}#graph-75 .edge-pattern-solid{stroke-dasharray:0;}#graph-75 .edge-thickness-invisible{stroke-width:0;fill:none;}#graph-75 .edge-pattern-dashed{stroke-dasharray:3;}#graph-75 .edge-pattern-dotted{stroke-dasharray:2;}#graph-75 .marker{fill:#333333;stroke:#333333;}#graph-75 .marker.cross{stroke:#333333;}#graph-75 svg{font-family:"trebuchet ms",verdana,arial,sans-serif;font-size:16px;}#graph-75 p{margin:0;}#graph-75 g.classGroup text{fill:#9370DB;stroke:none;font-family:"trebuchet ms",verdana,arial,sans-serif;font-size:10px;}#graph-75 g.classGroup text .title{font-weight:bolder;}#graph-75 .cluster-label text{fill:#333;}#graph-75 .cluster-label span{color:#333;}#graph-75 .cluster-label span p{background-color:transparent;}#graph-75 .cluster rect{fill:#ffffde;stroke:#aaaa33;stroke-width:1px;}#graph-75 .cluster text{fill:#333;}#graph-75 .cluster span{color:#333;}#graph-75 .nodeLabel,#graph-75 .edgeLabel{color:#131300;}#graph-75 .noteLabel .nodeLabel,#graph-75 .noteLabel .edgeLabel{color:black;}#graph-75 .edgeLabel .label rect{fill:#ECECFF;}#graph-75 .label text{fill:#131300;}#graph-75 .labelBkg{background:#ECECFF;}#graph-75 .edgeLabel .label span{background:#ECECFF;}#graph-75 .classTitle{font-weight:bolder;}#graph-75 .node rect,#graph-75 .node circle,#graph-75 .node ellipse,#graph-75 .node polygon,#graph-75 .node path{fill:#ECECFF;stroke:#9370DB;stroke-width:1;}#graph-75 .divider{stroke:#9370DB;stroke-width:1;}#graph-75 g.clickable{cursor:pointer;}#graph-75 g.classGroup rect{fill:#ECECFF;stroke:#9370DB;}#graph-75 g.classGroup line{stroke:#9370DB;stroke-width:1;}#graph-75 .classLabel .box{stroke:none;stroke-width:0;fill:#ECECFF;opacity:0.5;}#graph-75 .classLabel .label{fill:#9370DB;font-size:10px;}#graph-75 .relation{stroke:#333333;stroke-width:1;fill:none;}#graph-75 .dashed-line{stroke-dasharray:3;}#graph-75 .dotted-line{stroke-dasharray:1 2;}#graph-75 [id$="-compositionStart"],#graph-75 .composition{fill:#333333!important;stroke:#333333!important;stroke-width:1;}#graph-75 [id$="-compositionEnd"],#graph-75 .composition{fill:#333333!important;stroke:#333333!important;stroke-width:1;}#graph-75 [id$="-dependencyStart"],#graph-75 .dependency{fill:#333333!important;stroke:#333333!important;stroke-width:1;}#graph-75 [id$="-dependencyEnd"],#graph-75 .dependency{fill:#333333!important;stroke:#333333!important;stroke-width:1;}#graph-75 [id$="-extensionStart"],#graph-75 .extension{fill:transparent!important;stroke:#333333!important;stroke-width:1;}#graph-75 [id$="-extensionEnd"],#graph-75 .extension{fill:transparent!important;stroke:#333333!important;stroke-width:1;}#graph-75 [id$="-aggregationStart"],#graph-75 .aggregation{fill:transparent!important;stroke:#333333!important;stroke-width:1;}#graph-75 [id$="-aggregationEnd"],#graph-75 .aggregation{fill:transparent!important;stroke:#333333!important;stroke-width:1;}#graph-75 [id$="-lollipopStart"],#graph-75 .lollipop{fill:#ECECFF!important;stroke:#333333!important;stroke-width:1;}#graph-75 [id$="-lollipopEnd"],#graph-75 .lollipop{fill:#ECECFF!important;stroke:#333333!important;stroke-width:1;}#graph-75 .edgeTerminals{font-size:11px;line-height:initial;}#graph-75 .classTitleText{text-anchor:middle;font-size:18px;fill:#333;}#graph-75 .edgeLabel[data-look="neo"]{background-color:rgba(232,232,232, 0.8);text-align:center;}#graph-75 .edgeLabel[data-look="neo"] p{background-color:rgba(232,232,232, 0.8);}#graph-75 .edgeLabel[data-look="neo"] rect{opacity:0.5;background-color:rgba(232,232,232, 0.8);fill:rgba(232,232,232, 0.8);}#graph-75 .label-icon{display:inline-block;height:1em;overflow:visible;vertical-align:-0.125em;}#graph-75 .node .label-icon path{fill:currentColor;stroke:revert;stroke-width:revert;}#graph-75 .node .neo-node{stroke:#9370DB;}#graph-75 [data-look="neo"].node rect,#graph-75 [data-look="neo"].cluster rect,#graph-75 [data-look="neo"].node polygon{stroke:#9370DB;filter:drop-shadow(1px 2px 2px rgba(185, 185, 185, 1));}#graph-75 [data-look="neo"].swimlane.cluster rect{filter:none;}#graph-75 [data-look="neo"].node path{stroke:#9370DB;stroke-width:1px;}#graph-75 [data-look="neo"].node .outer-path{filter:drop-shadow(1px 2px 2px rgba(185, 185, 185, 1));}#graph-75 [data-look="neo"].node .neo-line path{stroke:#9370DB;filter:none;}#graph-75 [data-look="neo"].node circle{stroke:#9370DB;filter:drop-shadow(1px 2px 2px rgba(185, 185, 185, 1));}#graph-75 [data-look="neo"].node circle .state-start{fill:#000000;}#graph-75 [data-look="neo"].icon-shape .icon{fill:#9370DB;filter:drop-shadow(1px 2px 2px rgba(185, 185, 185, 1));}#graph-75 [data-look="neo"].icon-shape .icon-neo path{stroke:#9370DB;filter:drop-shadow(1px 2px 2px rgba(185, 185, 185, 1));}#graph-75 :root{--mermaid-font-family:"trebuchet ms",verdana,arial,sans-serif;}</style><g><defs><marker id="graph-75_class-aggregationStart" class="marker aggregation class" refX="18" refY="7" markerWidth="190" markerHeight="240" orient="auto"><path d="M 18,7 L9,13 L1,7 L9,1 Z"></path></marker></defs><defs><marker id="graph-75_class-aggregationEnd" class="marker aggregation class" refX="1" refY="7" markerWidth="20" markerHeight="28" orient="auto"><path d="M 18,7 L9,13 L1,7 L9,1 Z"></path></marker></defs><defs><marker id="graph-75_class-aggregationStart-margin" class="marker aggregation class" refX="15" refY="7" markerWidth="190" markerHeight="240" orient="auto" markerUnits="userSpaceOnUse"><path style="stroke-width: 2px;" d="M 18,7 L9,13 L1,7 L9,1 Z"></path></marker></defs><defs><marker id="graph-75_class-aggregationEnd-margin" class="marker aggregation class" refX="1" refY="7" markerWidth="20" markerHeight="28" orient="auto" markerUnits="userSpaceOnUse"><path style="stroke-width: 2px;" d="M 18,7 L9,13 L1,7 L9,1 Z"></path></marker></defs><defs><marker id="graph-75_class-extensionStart" class="marker extension class" refX="18" refY="7" markerWidth="20" markerHeight="28" orient="auto" markerUnits="userSpaceOnUse"><path d="M 1,7 L18,13 V 1 Z"></path></marker></defs><defs><marker id="graph-75_class-extensionEnd" class="marker extension class" refX="1" refY="7" markerWidth="20" markerHeight="28" orient="auto"><path d="M 1,1 V 13 L18,7 Z"></path></marker></defs><marker id="graph-75_class-extensionStart-margin" class="marker extension class" refX="18" refY="7" markerWidth="20" markerHeight="28" orient="auto" markerUnits="userSpaceOnUse" viewBox="0 0 20 14"><polygon points="10,7 18,13 18,1" style="stroke-width: 2px; stroke-dasharray: 0px;"></polygon></marker><defs><marker id="graph-75_class-extensionEnd-margin" class="marker extension class" refX="9" refY="7" markerWidth="20" markerHeight="28" orient="auto" markerUnits="userSpaceOnUse" viewBox="0 0 20 14"><polygon points="10,1 10,13 18,7" style="stroke-width: 2px; stroke-dasharray: 0px;"></polygon></marker></defs><defs><marker id="graph-75_class-compositionStart" class="marker composition class" refX="18" refY="7" markerWidth="190" markerHeight="240" orient="auto"><path d="M 18,7 L9,13 L1,7 L9,1 Z"></path></marker></defs><defs><marker id="graph-75_class-compositionEnd" class="marker composition class" refX="1" refY="7" markerWidth="20" markerHeight="28" orient="auto"><path d="M 18,7 L9,13 L1,7 L9,1 Z"></path></marker></defs><defs><marker id="graph-75_class-compositionStart-margin" class="marker composition class" refX="15" refY="7" markerWidth="190" markerHeight="240" orient="auto" markerUnits="userSpaceOnUse"><path style="stroke-width: 0px;" viewBox="0 0 15 15" d="M 18,7 L9,13 L1,7 L9,1 Z"></path></marker></defs><defs><marker id="graph-75_class-compositionEnd-margin" class="marker composition class" refX="3.5" refY="7" markerWidth="20" markerHeight="28" orient="auto" markerUnits="userSpaceOnUse"><path style="stroke-width: 0px;" d="M 18,7 L9,13 L1,7 L9,1 Z"></path></marker></defs><defs><marker id="graph-75_class-dependencyStart" class="marker dependency class" refX="6" refY="7" markerWidth="190" markerHeight="240" orient="auto"><path d="M 5,7 L9,13 L1,7 L9,1 Z"></path></marker></defs><defs><marker id="graph-75_class-dependencyEnd" class="marker dependency class" refX="13" refY="7" markerWidth="20" markerHeight="28" orient="auto"><path d="M 18,7 L9,13 L14,7 L9,1 Z"></path></marker></defs><defs><marker id="graph-75_class-dependencyStart-margin" class="marker dependency class" refX="4" refY="7" markerWidth="190" markerHeight="240" orient="auto" markerUnits="userSpaceOnUse"><path style="stroke-width: 0px;" d="M 5,7 L9,13 L1,7 L9,1 Z"></path></marker></defs><defs><marker id="graph-75_class-dependencyEnd-margin" class="marker dependency class" refX="16" refY="7" markerWidth="20" markerHeight="28" orient="auto" markerUnits="userSpaceOnUse"><path style="stroke-width: 0px;" d="M 18,7 L9,13 L14,7 L9,1 Z"></path></marker></defs><defs><marker id="graph-75_class-lollipopStart" class="marker lollipop class" refX="13" refY="7" markerWidth="190" markerHeight="240" orient="auto"><circle fill="transparent" cx="7" cy="7" r="6"></circle></marker></defs><defs><marker id="graph-75_class-lollipopEnd" class="marker lollipop class" refX="1" refY="7" markerWidth="190" markerHeight="240" orient="auto"><circle fill="transparent" cx="7" cy="7" r="6"></circle></marker></defs><defs><marker id="graph-75_class-lollipopStart-margin" class="marker lollipop class" refX="13" refY="7" markerWidth="190" markerHeight="240" orient="auto" markerUnits="userSpaceOnUse"><circle fill="transparent" cx="7" cy="7" r="6" stroke-width="2"></circle></marker></defs><defs><marker id="graph-75_class-lollipopEnd-margin" class="marker lollipop class" refX="1" refY="7" markerWidth="190" markerHeight="240" orient="auto" markerUnits="userSpaceOnUse"><circle fill="transparent" cx="7" cy="7" r="6" stroke-width="2"></circle></marker></defs><g class="root"><g class="clusters"></g><g class="edgePaths"><path d="M1925.107,150.572L1814.794,171.977C1704.481,193.381,1483.854,236.191,1373.54,261.762C1263.227,287.333,1263.227,295.667,1263.227,299.833L1263.227,304" id="graph-75-id_AttributeConverter_MoneyAttributeConverter_1" class="edge-thickness-normal edge-pattern-dashed relation" style=";;;" data-edge="true" data-et="edge" data-id="id_AttributeConverter_MoneyAttributeConverter_1" data-points="W3sieCI6MTk0Mi4wNDE2NTY0OTQxNDA2LCJ5IjoxNDcuMjg2MDI3NDA3MTgwNTd9LHsieCI6MTI2My4yMjcwNzM2Njk0MzM2LCJ5IjoyNzl9LHsieCI6MTI2My4yMjcwNzM2Njk0MzM2LCJ5IjozMDR9XQ==" data-look="classic" marker-start="url(#graph-75_class-extensionStart)"></path><path d="M1940.031,181.774L1912.603,197.979C1885.174,214.183,1830.317,246.591,1802.889,266.962C1775.46,287.333,1775.46,295.667,1775.46,299.833L1775.46,304" id="graph-75-id_AttributeConverter_MileageAttributeConverter_2" class="edge-thickness-normal edge-pattern-dashed relation" style=";;;" data-edge="true" data-et="edge" data-id="id_AttributeConverter_MileageAttributeConverter_2" data-points="W3sieCI6MTk1NC44ODMwMTU1MDM3NTQ1LCJ5IjoxNzN9LHsieCI6MTc3NS40NjA0MTEwNzE3NzczLCJ5IjoyNzl9LHsieCI6MTc3NS40NjA0MTEwNzE3NzczLCJ5IjozMDR9XQ==" data-look="classic" marker-start="url(#graph-75_class-extensionStart)"></path><path d="M2111.919,181.774L2139.347,197.979C2166.776,214.183,2221.633,246.591,2249.061,266.962C2276.49,287.333,2276.49,295.667,2276.49,299.833L2276.49,304" id="graph-75-id_AttributeConverter_AddressAttributeConverter_3" class="edge-thickness-normal edge-pattern-dashed relation" style=";;;" data-edge="true" data-et="edge" data-id="id_AttributeConverter_AddressAttributeConverter_3" data-points="W3sieCI6MjA5Ny4wNjY5NjYxODU2OTg3LCJ5IjoxNzN9LHsieCI6MjI3Ni40ODk1NzA2MTc2NzYsInkiOjI3OX0seyJ4IjoyMjc2LjQ4OTU3MDYxNzY3NiwieSI6MzA0fV0=" data-look="classic" marker-start="url(#graph-75_class-extensionStart)"></path></g><g class="edgeLabels"><g class="edgeLabel"><g class="label" data-id="id_AttributeConverter_MoneyAttributeConverter_1" transform="translate(0, 0)"><foreignObject width="0" height="0"><div style="display: table-cell; white-space: nowrap; line-height: 1.5; max-width: 200px; text-align: center;" xmlns="http://www.w3.org/1999/xhtml" class="labelBkg"><span class="edgeLabel"></span></div></foreignObject></g></g><g class="edgeLabel"><g class="label" data-id="id_AttributeConverter_MileageAttributeConverter_2" transform="translate(0, 0)"><foreignObject width="0" height="0"><div style="display: table-cell; white-space: nowrap; line-height: 1.5; max-width: 200px; text-align: center;" xmlns="http://www.w3.org/1999/xhtml" class="labelBkg"><span class="edgeLabel"></span></div></foreignObject></g></g><g class="edgeLabel"><g class="label" data-id="id_AttributeConverter_AddressAttributeConverter_3" transform="translate(0, 0)"><foreignObject width="0" height="0"><div style="display: table-cell; white-space: nowrap; line-height: 1.5; max-width: 200px; text-align: center;" xmlns="http://www.w3.org/1999/xhtml" class="labelBkg"><span class="edgeLabel"></span></div></foreignObject></g></g></g><g class="nodes"><g class="node default" id="graph-75-classId-AuditableAbstractPersistenceEntity-250" data-look="classic" transform="translate(153.47500610351562, 131)"><g class="basic label-container outer-path"><path d="M-145.47500610351562 -108 L145.47500610351562 -108 L145.47500610351562 108 L-145.47500610351562 108" stroke="none" stroke-width="0" fill="#ECECFF" style=""></path><path d="M-145.47500610351562 -108 C-35.014410328777714 -108, 75.4461854459602 -108, 145.47500610351562 -108 M-145.47500610351562 -108 C-59.17687071975192 -108, 27.12126466401179 -108, 145.47500610351562 -108 M145.47500610351562 -108 C145.47500610351562 -26.539759905212023, 145.47500610351562 54.920480189575954, 145.47500610351562 108 M145.47500610351562 -108 C145.47500610351562 -33.145322407393934, 145.47500610351562 41.70935518521213, 145.47500610351562 108 M145.47500610351562 108 C64.31649654055644 108, -16.84201302240274 108, -145.47500610351562 108 M145.47500610351562 108 C31.616381159238998 108, -82.24224378503763 108, -145.47500610351562 108 M-145.47500610351562 108 C-145.47500610351562 56.93961915128134, -145.47500610351562 5.879238302562683, -145.47500610351562 -108 M-145.47500610351562 108 C-145.47500610351562 42.10206628365958, -145.47500610351562 -23.795867432680836, -145.47500610351562 -108" stroke="#9370DB" stroke-width="1.3" fill="none" stroke-dasharray="0 0" style=""></path></g><g class="annotation-group text" transform="translate(-73.15833282470703, -84)"><g class="label" style="" transform="translate(0,-12)"><foreignObject width="146.31666564941406" height="24"><div style="display: table-cell; white-space: nowrap; line-height: 1.5; max-width: 208px; text-align: center;" xmlns="http://www.w3.org/1999/xhtml"><span class="nodeLabel markdown-node-label" style=""><p>«MappedSuperclass»</p></span></div></foreignObject></g></g><g class="label-group text" transform="translate(-131.9499969482422, -60)"><g class="label" style="font-weight: bolder" transform="translate(0,-12)"><foreignObject width="263.8999938964844" height="24"><div style="display: table-cell; white-space: nowrap; line-height: 1.5; max-width: 313px; text-align: center;" xmlns="http://www.w3.org/1999/xhtml"><span class="nodeLabel markdown-node-label" style=""><p>AuditableAbstractPersistenceEntity</p></span></div></foreignObject></g></g><g class="members-group text" transform="translate(-133.47500610351562, -12)"><g class="label" style="" transform="translate(0,-12)"><foreignObject width="59.21665954589844" height="24"><div style="display: table-cell; white-space: nowrap; line-height: 1.5; max-width: 120px; text-align: center;" xmlns="http://www.w3.org/1999/xhtml"><span class="nodeLabel markdown-node-label" style=""><p>-UUID id</p></span></div></foreignObject></g><g class="label" style="" transform="translate(0,12)"><foreignObject width="131.28334045410156" height="24"><div style="display: table-cell; white-space: nowrap; line-height: 1.5; max-width: 191px; text-align: center;" xmlns="http://www.w3.org/1999/xhtml"><span class="nodeLabel markdown-node-label" style=""><p>-Instant createdAt</p></span></div></foreignObject></g><g class="label" style="" transform="translate(0,36)"><foreignObject width="135" height="24"><div style="display: table-cell; white-space: nowrap; line-height: 1.5; max-width: 198px; text-align: center;" xmlns="http://www.w3.org/1999/xhtml"><span class="nodeLabel markdown-node-label" style=""><p>-Instant updatedAt</p></span></div></foreignObject></g><g class="label" style="" transform="translate(0,60)"><foreignObject width="95.33332824707031" height="24"><div style="display: table-cell; white-space: nowrap; line-height: 1.5; max-width: 158px; text-align: center;" xmlns="http://www.w3.org/1999/xhtml"><span class="nodeLabel markdown-node-label" style=""><p>-Long version</p></span></div></foreignObject></g></g><g class="methods-group text" transform="translate(-133.47500610351562, 108)"></g><g class="divider" style=""><path d="M-145.47500610351562 -36 C-30.54128378596093 -35.99960497089708, 84.39243853159377 -35.999209941794156, 145.47500610351562 -35.999 M-145.47500610351562 -36 C-69.48234430039906 -35.99973881196558, 6.510317502717498 -35.999477623931156, 145.47500610351562 -35.999" stroke="#9370DB" stroke-width="1.3" fill="none" stroke-dasharray="0 0" style=""></path></g><g class="divider" style=""><path d="M-145.47500610351562 84 C-30.0513365661497 84.00039671305962, 85.37233297121622 84.00079342611923, 145.47500610351562 84.001 M-145.47500610351562 84 C-32.00921010252743 84.00038998381592, 81.45658589846076 84.00077996763183, 145.47500610351562 84.001" stroke="#9370DB" stroke-width="1.3" fill="none" stroke-dasharray="0 0" style=""></path></g></g><g class="node default" id="graph-75-classId-MoneyAttributeConverter-251" data-look="classic" transform="translate(1263.2270736694336, 379)"><g class="basic label-container outer-path"><path d="M-234.7375030517578 -75 L234.7375030517578 -75 L234.7375030517578 75 L-234.7375030517578 75" stroke="none" stroke-width="0" fill="#ECECFF" style=""></path><path d="M-234.7375030517578 -75 C-64.07763927114928 -75, 106.58222450945925 -75, 234.7375030517578 -75 M-234.7375030517578 -75 C-136.53248169728477 -75, -38.32746034281169 -75, 234.7375030517578 -75 M234.7375030517578 -75 C234.7375030517578 -19.97874950783796, 234.7375030517578 35.04250098432408, 234.7375030517578 75 M234.7375030517578 -75 C234.7375030517578 -23.159952428520107, 234.7375030517578 28.680095142959786, 234.7375030517578 75 M234.7375030517578 75 C138.91026433231826 75, 43.083025612878714 75, -234.7375030517578 75 M234.7375030517578 75 C78.82800201639668 75, -77.08149901896445 75, -234.7375030517578 75 M-234.7375030517578 75 C-234.7375030517578 41.73263079302703, -234.7375030517578 8.465261586054055, -234.7375030517578 -75 M-234.7375030517578 75 C-234.7375030517578 32.445019284195816, -234.7375030517578 -10.109961431608369, -234.7375030517578 -75" stroke="#9370DB" stroke-width="1.3" fill="none" stroke-dasharray="0 0" style=""></path></g><g class="annotation-group text" transform="translate(0, -51)"></g><g class="label-group text" transform="translate(-96.00833129882812, -51)"><g class="label" style="font-weight: bolder" transform="translate(0,-12)"><foreignObject width="192.01666259765625" height="24"><div style="display: table-cell; white-space: nowrap; line-height: 1.5; max-width: 243px; text-align: center;" xmlns="http://www.w3.org/1999/xhtml"><span class="nodeLabel markdown-node-label" style=""><p>MoneyAttributeConverter</p></span></div></foreignObject></g></g><g class="members-group text" transform="translate(-222.7375030517578, -3)"></g><g class="methods-group text" transform="translate(-222.7375030517578, 27)"><g class="label" style="" transform="translate(0,-12)"><foreignObject width="349.4666748046875" height="24"><div style="display: table-cell; white-space: nowrap; line-height: 1.5; max-width: 427px; text-align: center;" xmlns="http://www.w3.org/1999/xhtml"><span class="nodeLabel markdown-node-label" style=""><p>+convertToDatabaseColumn(Money) : BigDecimal</p></span></div></foreignObject></g><g class="label" style="" transform="translate(0,12)"><foreignObject width="338.45001220703125" height="24"><div style="display: table-cell; white-space: nowrap; line-height: 1.5; max-width: 407px; text-align: center;" xmlns="http://www.w3.org/1999/xhtml"><span class="nodeLabel markdown-node-label" style=""><p>+convertToEntityAttribute(BigDecimal) : Money</p></span></div></foreignObject></g></g><g class="divider" style=""><path d="M-234.7375030517578 -27 C-91.70524653248413 -26.999695335737453, 51.32700998678956 -26.999390671474902, 234.7375030517578 -26.999 M-234.7375030517578 -27 C-131.36784820143714 -26.99977981861972, -27.99819335111647 -26.999559637239443, 234.7375030517578 -26.999" stroke="#9370DB" stroke-width="1.3" fill="none" stroke-dasharray="0 0" style=""></path></g><g class="divider" style=""><path d="M-234.7375030517578 -3 C-127.84554457471997 -2.9997723159761707, -20.95358609768212 -2.999544631952341, 234.7375030517578 -2.999 M-234.7375030517578 -3 C-82.95261223000705 -2.999676692286387, 68.83227859174372 -2.9993533845727742, 234.7375030517578 -2.999" stroke="#9370DB" stroke-width="1.3" fill="none" stroke-dasharray="0 0" style=""></path></g></g><g class="node default" id="graph-75-classId-MileageAttributeConverter-252" data-look="classic" transform="translate(1775.4604110717773, 379)"><g class="basic label-container outer-path"><path d="M-227.49583435058594 -75 L227.49583435058594 -75 L227.49583435058594 75 L-227.49583435058594 75" stroke="none" stroke-width="0" fill="#ECECFF" style=""></path><path d="M-227.49583435058594 -75 C-118.16068871144435 -75, -8.825543072302764 -75, 227.49583435058594 -75 M-227.49583435058594 -75 C-128.77377071081798 -75, -30.051707071050004 -75, 227.49583435058594 -75 M227.49583435058594 -75 C227.49583435058594 -20.63113919808984, 227.49583435058594 33.73772160382032, 227.49583435058594 75 M227.49583435058594 -75 C227.49583435058594 -23.663918140294186, 227.49583435058594 27.67216371941163, 227.49583435058594 75 M227.49583435058594 75 C102.01923241176401 75, -23.45736952705792 75, -227.49583435058594 75 M227.49583435058594 75 C59.60978604377007 75, -108.2762622630458 75, -227.49583435058594 75 M-227.49583435058594 75 C-227.49583435058594 28.82694286060373, -227.49583435058594 -17.34611427879254, -227.49583435058594 -75 M-227.49583435058594 75 C-227.49583435058594 35.68263520105493, -227.49583435058594 -3.634729597890143, -227.49583435058594 -75" stroke="#9370DB" stroke-width="1.3" fill="none" stroke-dasharray="0 0" style=""></path></g><g class="annotation-group text" transform="translate(0, -51)"></g><g class="label-group text" transform="translate(-100.10832977294922, -51)"><g class="label" style="font-weight: bolder" transform="translate(0,-12)"><foreignObject width="200.21665954589844" height="24"><div style="display: table-cell; white-space: nowrap; line-height: 1.5; max-width: 252px; text-align: center;" xmlns="http://www.w3.org/1999/xhtml"><span class="nodeLabel markdown-node-label" style=""><p>MileageAttributeConverter</p></span></div></foreignObject></g></g><g class="members-group text" transform="translate(-215.49583435058594, -3)"></g><g class="methods-group text" transform="translate(-215.49583435058594, 27)"><g class="label" style="" transform="translate(0,-12)"><foreignObject width="330.8833312988281" height="24"><div style="display: table-cell; white-space: nowrap; line-height: 1.5; max-width: 406px; text-align: center;" xmlns="http://www.w3.org/1999/xhtml"><span class="nodeLabel markdown-node-label" style=""><p>+convertToDatabaseColumn(Mileage) : Integer</p></span></div></foreignObject></g><g class="label" style="" transform="translate(0,12)"><foreignObject width="319.8666687011719" height="24"><div style="display: table-cell; white-space: nowrap; line-height: 1.5; max-width: 386px; text-align: center;" xmlns="http://www.w3.org/1999/xhtml"><span class="nodeLabel markdown-node-label" style=""><p>+convertToEntityAttribute(Integer) : Mileage</p></span></div></foreignObject></g></g><g class="divider" style=""><path d="M-227.49583435058594 -27 C-87.70648214769213 -26.999692765028858, 52.08287005520168 -26.999385530057715, 227.49583435058594 -26.999 M-227.49583435058594 -27 C-94.51996809258549 -26.999707739997444, 38.455898165414965 -26.999415479994884, 227.49583435058594 -26.999" stroke="#9370DB" stroke-width="1.3" fill="none" stroke-dasharray="0 0" style=""></path></g><g class="divider" style=""><path d="M-227.49583435058594 -3 C-90.58326350126885 -2.999699087741013, 46.329307348048246 -2.999398175482025, 227.49583435058594 -2.999 M-227.49583435058594 -3 C-46.122462794156945 -2.9996013699062356, 135.25090876227205 -2.999202739812471, 227.49583435058594 -2.999" stroke="#9370DB" stroke-width="1.3" fill="none" stroke-dasharray="0 0" style=""></path></g></g><g class="node default" id="graph-75-classId-AddressAttributeConverter-253" data-look="classic" transform="translate(2276.489570617676, 379)"><g class="basic label-container outer-path"><path d="M-223.5333251953125 -75 L223.5333251953125 -75 L223.5333251953125 75 L-223.5333251953125 75" stroke="none" stroke-width="0" fill="#ECECFF" style=""></path><path d="M-223.5333251953125 -75 C-87.6883986597802 -75, 48.15652787575209 -75, 223.5333251953125 -75 M-223.5333251953125 -75 C-127.21940478016211 -75, -30.905484365011716 -75, 223.5333251953125 -75 M223.5333251953125 -75 C223.5333251953125 -19.797573391616552, 223.5333251953125 35.404853216766895, 223.5333251953125 75 M223.5333251953125 -75 C223.5333251953125 -17.490962416511323, 223.5333251953125 40.018075166977354, 223.5333251953125 75 M223.5333251953125 75 C98.98902940253487 75, -25.555266390242764 75, -223.5333251953125 75 M223.5333251953125 75 C132.7975200345893 75, 42.06171487386612 75, -223.5333251953125 75 M-223.5333251953125 75 C-223.5333251953125 42.88659065915924, -223.5333251953125 10.773181318318478, -223.5333251953125 -75 M-223.5333251953125 75 C-223.5333251953125 26.278232442246043, -223.5333251953125 -22.443535115507913, -223.5333251953125 -75" stroke="#9370DB" stroke-width="1.3" fill="none" stroke-dasharray="0 0" style=""></path></g><g class="annotation-group text" transform="translate(0, -51)"></g><g class="label-group text" transform="translate(-101.18333435058594, -51)"><g class="label" style="font-weight: bolder" transform="translate(0,-12)"><foreignObject width="202.36666870117188" height="24"><div style="display: table-cell; white-space: nowrap; line-height: 1.5; max-width: 252px; text-align: center;" xmlns="http://www.w3.org/1999/xhtml"><span class="nodeLabel markdown-node-label" style=""><p>AddressAttributeConverter</p></span></div></foreignObject></g></g><g class="members-group text" transform="translate(-211.5333251953125, -3)"></g><g class="methods-group text" transform="translate(-211.5333251953125, 27)"><g class="label" style="" transform="translate(0,-12)"><foreignObject width="321.8833312988281" height="24"><div style="display: table-cell; white-space: nowrap; line-height: 1.5; max-width: 397px; text-align: center;" xmlns="http://www.w3.org/1999/xhtml"><span class="nodeLabel markdown-node-label" style=""><p>+convertToDatabaseColumn(Address) : String</p></span></div></foreignObject></g><g class="label" style="" transform="translate(0,12)"><foreignObject width="310.8666687011719" height="24"><div style="display: table-cell; white-space: nowrap; line-height: 1.5; max-width: 377px; text-align: center;" xmlns="http://www.w3.org/1999/xhtml"><span class="nodeLabel markdown-node-label" style=""><p>+convertToEntityAttribute(String) : Address</p></span></div></foreignObject></g></g><g class="divider" style=""><path d="M-223.5333251953125 -27 C-98.76351113718788 -26.999720914512526, 26.006302920936747 -26.99944182902505, 223.5333251953125 -26.999 M-223.5333251953125 -27 C-60.5412455378046 -26.999635418836284, 102.4508341197033 -26.99927083767257, 223.5333251953125 -26.999" stroke="#9370DB" stroke-width="1.3" fill="none" stroke-dasharray="0 0" style=""></path></g><g class="divider" style=""><path d="M-223.5333251953125 -3 C-122.49699935838413 -2.9997740016488623, -21.46067352145576 -2.9995480032977246, 223.5333251953125 -2.999 M-223.5333251953125 -3 C-89.80329400556562 -2.999700872272461, 43.92673718418126 -2.9994017445449224, 223.5333251953125 -2.999" stroke="#9370DB" stroke-width="1.3" fill="none" stroke-dasharray="0 0" style=""></path></g></g><g class="node default" id="graph-75-classId-MultiTenancySecurityService-254" data-look="classic" transform="translate(568.8041687011719, 131)"><g class="basic label-container outer-path"><path d="M-219.85415649414062 -123 L219.85415649414062 -123 L219.85415649414062 123 L-219.85415649414062 123" stroke="none" stroke-width="0" fill="#ECECFF" style=""></path><path d="M-219.85415649414062 -123 C-76.03674430786396 -123, 67.78066787841271 -123, 219.85415649414062 -123 M-219.85415649414062 -123 C-69.5209162348649 -123, 80.81232402441083 -123, 219.85415649414062 -123 M219.85415649414062 -123 C219.85415649414062 -53.31685811603353, 219.85415649414062 16.36628376793294, 219.85415649414062 123 M219.85415649414062 -123 C219.85415649414062 -26.79832637404911, 219.85415649414062 69.40334725190178, 219.85415649414062 123 M219.85415649414062 123 C73.75918989950219 123, -72.33577669513625 123, -219.85415649414062 123 M219.85415649414062 123 C121.74387471877512 123, 23.63359294340961 123, -219.85415649414062 123 M-219.85415649414062 123 C-219.85415649414062 31.38627745762855, -219.85415649414062 -60.2274450847429, -219.85415649414062 -123 M-219.85415649414062 123 C-219.85415649414062 29.571206891298644, -219.85415649414062 -63.85758621740271, -219.85415649414062 -123" stroke="#9370DB" stroke-width="1.3" fill="none" stroke-dasharray="0 0" style=""></path></g><g class="annotation-group text" transform="translate(0, -99)"></g><g class="label-group text" transform="translate(-107.67500305175781, -99)"><g class="label" style="font-weight: bolder" transform="translate(0,-12)"><foreignObject width="215.35000610351562" height="24"><div style="display: table-cell; white-space: nowrap; line-height: 1.5; max-width: 263px; text-align: center;" xmlns="http://www.w3.org/1999/xhtml"><span class="nodeLabel markdown-node-label" style=""><p>MultiTenancySecurityService</p></span></div></foreignObject></g></g><g class="members-group text" transform="translate(-207.85415649414062, -51)"></g><g class="methods-group text" transform="translate(-207.85415649414062, -21)"><g class="label" style="" transform="translate(0,-12)"><foreignObject width="288.6166687011719" height="24"><div style="display: table-cell; white-space: nowrap; line-height: 1.5; max-width: 361px; text-align: center;" xmlns="http://www.w3.org/1999/xhtml"><span class="nodeLabel markdown-node-label" style=""><p>+isAuthorizedForBranch(UUID) : boolean</p></span></div></foreignObject></g><g class="label" style="" transform="translate(0,12)"><foreignObject width="254.56666564941406" height="24"><div style="display: table-cell; white-space: nowrap; line-height: 1.5; max-width: 322px; text-align: center;" xmlns="http://www.w3.org/1999/xhtml"><span class="nodeLabel markdown-node-label" style=""><p>+validateBranchAccess(UUID) : void</p></span></div></foreignObject></g><g class="label" style="" transform="translate(0,36)"><foreignObject width="271.3500061035156" height="24"><div style="display: table-cell; white-space: nowrap; line-height: 1.5; max-width: 343px; text-align: center;" xmlns="http://www.w3.org/1999/xhtml"><span class="nodeLabel markdown-node-label" style=""><p>+isAuthorizedForUser(UUID) : boolean</p></span></div></foreignObject></g><g class="label" style="" transform="translate(0,60)"><foreignObject width="237.3000030517578" height="24"><div style="display: table-cell; white-space: nowrap; line-height: 1.5; max-width: 304px; text-align: center;" xmlns="http://www.w3.org/1999/xhtml"><span class="nodeLabel markdown-node-label" style=""><p>+validateUserAccess(UUID) : void</p></span></div></foreignObject></g><g class="label" style="" transform="translate(0,84)"><foreignObject width="308.0333251953125" height="24"><div style="display: table-cell; white-space: nowrap; line-height: 1.5; max-width: 384px; text-align: center;" xmlns="http://www.w3.org/1999/xhtml"><span class="nodeLabel markdown-node-label" style=""><p>+isAuthorizedForWorkshop(UUID) : boolean</p></span></div></foreignObject></g><g class="label" style="" transform="translate(0,108)"><foreignObject width="273.98333740234375" height="24"><div style="display: table-cell; white-space: nowrap; line-height: 1.5; max-width: 345px; text-align: center;" xmlns="http://www.w3.org/1999/xhtml"><span class="nodeLabel markdown-node-label" style=""><p>+validateWorkshopAccess(UUID) : void</p></span></div></foreignObject></g></g><g class="divider" style=""><path d="M-219.85415649414062 -75 C-128.5024293137749 -74.99979224471204, -37.1507021334092 -74.9995844894241, 219.85415649414062 -74.999 M-219.85415649414062 -75 C-86.7347615236144 -74.99969725522342, 46.384633446911835 -74.99939451044686, 219.85415649414062 -74.999" stroke="#9370DB" stroke-width="1.3" fill="none" stroke-dasharray="0 0" style=""></path></g><g class="divider" style=""><path d="M-219.85415649414062 -51 C-82.38272284483918 -50.999687357665096, 55.088710804462266 -50.99937471533019, 219.85415649414062 -50.999 M-219.85415649414062 -51 C-105.89955391941568 -50.99974084046353, 8.055048655309264 -50.99948168092707, 219.85415649414062 -50.999" stroke="#9370DB" stroke-width="1.3" fill="none" stroke-dasharray="0 0" style=""></path></g></g><g class="node default" id="graph-75-classId-UserSecurityService-255" data-look="classic" transform="translate(1000.7166595458984, 131)"><g class="basic label-container outer-path"><path d="M-162.05833435058594 -63 L162.05833435058594 -63 L162.05833435058594 63 L-162.05833435058594 63" stroke="none" stroke-width="0" fill="#ECECFF" style=""></path><path d="M-162.05833435058594 -63 C-33.434743318482106 -63, 95.18884771362173 -63, 162.05833435058594 -63 M-162.05833435058594 -63 C-52.77874123152422 -63, 56.50085188753749 -63, 162.05833435058594 -63 M162.05833435058594 -63 C162.05833435058594 -12.97856770978774, 162.05833435058594 37.04286458042452, 162.05833435058594 63 M162.05833435058594 -63 C162.05833435058594 -23.349975982685685, 162.05833435058594 16.30004803462863, 162.05833435058594 63 M162.05833435058594 63 C42.22940291796955 63, -77.59952851464683 63, -162.05833435058594 63 M162.05833435058594 63 C40.42385402375798 63, -81.21062630306997 63, -162.05833435058594 63 M-162.05833435058594 63 C-162.05833435058594 24.47099032755242, -162.05833435058594 -14.058019344895158, -162.05833435058594 -63 M-162.05833435058594 63 C-162.05833435058594 28.121081069854, -162.05833435058594 -6.757837860292, -162.05833435058594 -63" stroke="#9370DB" stroke-width="1.3" fill="none" stroke-dasharray="0 0" style=""></path></g><g class="annotation-group text" transform="translate(0, -39)"></g><g class="label-group text" transform="translate(-75.28333282470703, -39)"><g class="label" style="font-weight: bolder" transform="translate(0,-12)"><foreignObject width="150.56666564941406" height="24"><div style="display: table-cell; white-space: nowrap; line-height: 1.5; max-width: 198px; text-align: center;" xmlns="http://www.w3.org/1999/xhtml"><span class="nodeLabel markdown-node-label" style=""><p>UserSecurityService</p></span></div></foreignObject></g></g><g class="members-group text" transform="translate(-150.05833435058594, 9)"></g><g class="methods-group text" transform="translate(-150.05833435058594, 39)"><g class="label" style="" transform="translate(0,-12)"><foreignObject width="224.8333282470703" height="24"><div style="display: table-cell; white-space: nowrap; line-height: 1.5; max-width: 293px; text-align: center;" xmlns="http://www.w3.org/1999/xhtml"><span class="nodeLabel markdown-node-label" style=""><p>+isCurrentUser(UUID) : boolean</p></span></div></foreignObject></g></g><g class="divider" style=""><path d="M-162.05833435058594 -15 C-34.433282121451924 -14.999606237307262, 93.19177010768209 -14.999212474614524, 162.05833435058594 -14.999 M-162.05833435058594 -15 C-60.16097326010707 -14.999685615178329, 41.7363878303718 -14.999371230356656, 162.05833435058594 -14.999" stroke="#9370DB" stroke-width="1.3" fill="none" stroke-dasharray="0 0" style=""></path></g><g class="divider" style=""><path d="M-162.05833435058594 9 C-67.46579783081658 9.000291847182371, 27.12673868895277 9.00058369436474, 162.05833435058594 9.001 M-162.05833435058594 9 C-61.413547755800124 9.000310520242596, 39.23123883898569 9.000621040485193, 162.05833435058594 9.001" stroke="#9370DB" stroke-width="1.3" fill="none" stroke-dasharray="0 0" style=""></path></g></g><g class="node default" id="graph-75-classId-SnakeCaseWithPluralizedTablePhysicalNamingStrategy-256" data-look="classic" transform="translate(1552.4083251953125, 131)"><g class="basic label-container outer-path"><path d="M-339.6333312988281 -63 L339.6333312988281 -63 L339.6333312988281 63 L-339.6333312988281 63" stroke="none" stroke-width="0" fill="#ECECFF" style=""></path><path d="M-339.6333312988281 -63 C-80.99825375581946 -63, 177.6368237871892 -63, 339.6333312988281 -63 M-339.6333312988281 -63 C-196.4682104891139 -63, -53.30308967939965 -63, 339.6333312988281 -63 M339.6333312988281 -63 C339.6333312988281 -18.011580121533704, 339.6333312988281 26.97683975693259, 339.6333312988281 63 M339.6333312988281 -63 C339.6333312988281 -35.50360269768011, 339.6333312988281 -8.007205395360224, 339.6333312988281 63 M339.6333312988281 63 C141.7492954597102 63, -56.13474037940773 63, -339.6333312988281 63 M339.6333312988281 63 C82.73119758886293 63, -174.17093612110227 63, -339.6333312988281 63 M-339.6333312988281 63 C-339.6333312988281 36.909252015538044, -339.6333312988281 10.818504031076095, -339.6333312988281 -63 M-339.6333312988281 63 C-339.6333312988281 20.612747522727716, -339.6333312988281 -21.774504954544568, -339.6333312988281 -63" stroke="#9370DB" stroke-width="1.3" fill="none" stroke-dasharray="0 0" style=""></path></g><g class="annotation-group text" transform="translate(0, -39)"></g><g class="label-group text" transform="translate(-202.48333740234375, -39)"><g class="label" style="font-weight: bolder" transform="translate(0,-12)"><foreignObject width="404.9666748046875" height="24"><div style="display: table-cell; white-space: nowrap; line-height: 1.5; max-width: 462px; text-align: center;" xmlns="http://www.w3.org/1999/xhtml"><span class="nodeLabel markdown-node-label" style=""><p>SnakeCaseWithPluralizedTablePhysicalNamingStrategy</p></span></div></foreignObject></g></g><g class="members-group text" transform="translate(-327.6333312988281, 9)"></g><g class="methods-group text" transform="translate(-327.6333312988281, 39)"><g class="label" style="" transform="translate(0,-12)"><foreignObject width="452.7833251953125" height="24"><div style="display: table-cell; white-space: nowrap; line-height: 1.5; max-width: 521px; text-align: center;" xmlns="http://www.w3.org/1999/xhtml"><span class="nodeLabel markdown-node-label" style=""><p>+toPhysicalTableName(Identifier, JdbcEnvironment) : Identifier</p></span></div></foreignObject></g></g><g class="divider" style=""><path d="M-339.6333312988281 -15 C-198.99275023470923 -14.99979295232814, -58.352169170590344 -14.999585904656277, 339.6333312988281 -14.999 M-339.6333312988281 -15 C-182.22670505644973 -14.999768269760745, -24.820078814071337 -14.999536539521488, 339.6333312988281 -14.999" stroke="#9370DB" stroke-width="1.3" fill="none" stroke-dasharray="0 0" style=""></path></g><g class="divider" style=""><path d="M-339.6333312988281 9 C-76.40459921184663 9.000387518991555, 186.82413287513486 9.00077503798311, 339.6333312988281 9.001 M-339.6333312988281 9 C-186.29363334571363 9.000225743005503, -32.953935392599135 9.000451486011007, 339.6333312988281 9.001" stroke="#9370DB" stroke-width="1.3" fill="none" stroke-dasharray="0 0" style=""></path></g></g><g class="node default" id="graph-75-classId-AttributeConverter-257" data-look="classic" transform="translate(2025.9749908447266, 131)"><g class="basic label-container outer-path"><path d="M-83.93333435058594 -42 L83.93333435058594 -42 L83.93333435058594 42 L-83.93333435058594 42" stroke="none" stroke-width="0" fill="#ECECFF" style=""></path><path d="M-83.93333435058594 -42 C-42.645019805600036 -42, -1.3567052606141345 -42, 83.93333435058594 -42 M-83.93333435058594 -42 C-33.9103099756179 -42, 16.11271439935014 -42, 83.93333435058594 -42 M83.93333435058594 -42 C83.93333435058594 -11.632028592833873, 83.93333435058594 18.735942814332255, 83.93333435058594 42 M83.93333435058594 -42 C83.93333435058594 -13.7273304655039, 83.93333435058594 14.545339068992199, 83.93333435058594 42 M83.93333435058594 42 C45.0524791858921 42, 6.171624021198269 42, -83.93333435058594 42 M83.93333435058594 42 C45.35204102563735 42, 6.770747700688759 42, -83.93333435058594 42 M-83.93333435058594 42 C-83.93333435058594 23.638576117488103, -83.93333435058594 5.277152234976207, -83.93333435058594 -42 M-83.93333435058594 42 C-83.93333435058594 20.092900082182506, -83.93333435058594 -1.8141998356349873, -83.93333435058594 -42" stroke="#9370DB" stroke-width="1.3" fill="none" stroke-dasharray="0 0" style=""></path></g><g class="annotation-group text" transform="translate(0, -18)"></g><g class="label-group text" transform="translate(-71.93333435058594, -18)"><g class="label" style="font-weight: bolder" transform="translate(0,-12)"><foreignObject width="143.86666870117188" height="24"><div style="display: table-cell; white-space: nowrap; line-height: 1.5; max-width: 192px; text-align: center;" xmlns="http://www.w3.org/1999/xhtml"><span class="nodeLabel markdown-node-label" style=""><p>AttributeConverter</p></span></div></foreignObject></g></g><g class="members-group text" transform="translate(-71.93333435058594, 30)"></g><g class="methods-group text" transform="translate(-71.93333435058594, 60)"></g><g class="divider" style=""><path d="M-83.93333435058594 6 C-31.87154834118366 6.000310137720682, 20.190237668218614 6.000620275441364, 83.93333435058594 6.001 M-83.93333435058594 6 C-37.70047139199821 6.000275414192206, 8.532391566589524 6.000550828384411, 83.93333435058594 6.001" stroke="#9370DB" stroke-width="1.3" fill="none" stroke-dasharray="0 0" style=""></path></g><g class="divider" style=""><path d="M-83.93333435058594 24 C-32.33097145202238 24.00030740088725, 19.271391446541173 24.000614801774503, 83.93333435058594 24.001 M-83.93333435058594 24 C-23.533774590054655 24.000359806745603, 36.86578517047663 24.000719613491206, 83.93333435058594 24.001" stroke="#9370DB" stroke-width="1.3" fill="none" stroke-dasharray="0 0" style=""></path></g></g></g></g></g></g></svg>