<svg id="my-svg" width="100%" xmlns="http://www.w3.org/2000/svg" xmlns:xlink="http://www.w3.org/1999/xlink" class="classDiagram" style="max-width: 1655.07px; background-color: transparent;" viewBox="0 0 1655.06640625 383" role="graphics-document document" aria-roledescription="classDiagram"><style>#my-svg{font-family:"trebuchet ms",verdana,arial,sans-serif;font-size:16px;fill:#333;}@keyframes edge-animation-frame{from{stroke-dashoffset:0;}}@keyframes dash{to{stroke-dashoffset:0;}}#my-svg .edge-animation-slow{stroke-dasharray:9,5!important;stroke-dashoffset:900;animation:dash 50s linear infinite;stroke-linecap:round;}#my-svg .edge-animation-fast{stroke-dasharray:9,5!important;stroke-dashoffset:900;animation:dash 20s linear infinite;stroke-linecap:round;}#my-svg .error-icon{fill:#552222;}#my-svg .error-text{fill:#552222;stroke:#552222;}#my-svg .edge-thickness-normal{stroke-width:1px;}#my-svg .edge-thickness-thick{stroke-width:3.5px;}#my-svg .edge-pattern-solid{stroke-dasharray:0;}#my-svg .edge-thickness-invisible{stroke-width:0;fill:none;}#my-svg .edge-pattern-dashed{stroke-dasharray:3;}#my-svg .edge-pattern-dotted{stroke-dasharray:2;}#my-svg .marker{fill:#333333;stroke:#333333;}#my-svg .marker.cross{stroke:#333333;}#my-svg svg{font-family:"trebuchet ms",verdana,arial,sans-serif;font-size:16px;}#my-svg p{margin:0;}#my-svg g.classGroup text{fill:#9370DB;stroke:none;font-family:"trebuchet ms",verdana,arial,sans-serif;font-size:10px;}#my-svg g.classGroup text .title{font-weight:bolder;}#my-svg .cluster-label text{fill:#333;}#my-svg .cluster-label span{color:#333;}#my-svg .cluster-label span p{background-color:transparent;}#my-svg .cluster rect{fill:#ffffde;stroke:#aaaa33;stroke-width:1px;}#my-svg .cluster text{fill:#333;}#my-svg .cluster span{color:#333;}#my-svg .nodeLabel,#my-svg .edgeLabel{color:#131300;}#my-svg .noteLabel .nodeLabel,#my-svg .noteLabel .edgeLabel{color:black;}#my-svg .edgeLabel .label rect{fill:#ECECFF;}#my-svg .label text{fill:#131300;}#my-svg .labelBkg{background:#ECECFF;}#my-svg .edgeLabel .label span{background:#ECECFF;}#my-svg .classTitle{font-weight:bolder;}#my-svg .node rect,#my-svg .node circle,#my-svg .node ellipse,#my-svg .node polygon,#my-svg .node path{fill:#ECECFF;stroke:#9370DB;stroke-width:1;}#my-svg .divider{stroke:#9370DB;stroke-width:1;}#my-svg g.clickable{cursor:pointer;}#my-svg g.classGroup rect{fill:#ECECFF;stroke:#9370DB;}#my-svg g.classGroup line{stroke:#9370DB;stroke-width:1;}#my-svg .classLabel .box{stroke:none;stroke-width:0;fill:#ECECFF;opacity:0.5;}#my-svg .classLabel .label{fill:#9370DB;font-size:10px;}#my-svg .relation{stroke:#333333;stroke-width:1;fill:none;}#my-svg .dashed-line{stroke-dasharray:3;}#my-svg .dotted-line{stroke-dasharray:1 2;}#my-svg [id$="-compositionStart"],#my-svg .composition{fill:#333333!important;stroke:#333333!important;stroke-width:1;}#my-svg [id$="-compositionEnd"],#my-svg .composition{fill:#333333!important;stroke:#333333!important;stroke-width:1;}#my-svg [id$="-dependencyStart"],#my-svg .dependency{fill:#333333!important;stroke:#333333!important;stroke-width:1;}#my-svg [id$="-dependencyEnd"],#my-svg .dependency{fill:#333333!important;stroke:#333333!important;stroke-width:1;}#my-svg [id$="-extensionStart"],#my-svg .extension{fill:transparent!important;stroke:#333333!important;stroke-width:1;}#my-svg [id$="-extensionEnd"],#my-svg .extension{fill:transparent!important;stroke:#333333!important;stroke-width:1;}#my-svg [id$="-aggregationStart"],#my-svg .aggregation{fill:transparent!important;stroke:#333333!important;stroke-width:1;}#my-svg [id$="-aggregationEnd"],#my-svg .aggregation{fill:transparent!important;stroke:#333333!important;stroke-width:1;}#my-svg [id$="-lollipopStart"],#my-svg .lollipop{fill:#ECECFF!important;stroke:#333333!important;stroke-width:1;}#my-svg [id$="-lollipopEnd"],#my-svg .lollipop{fill:#ECECFF!important;stroke:#333333!important;stroke-width:1;}#my-svg .edgeTerminals{font-size:11px;line-height:initial;}#my-svg .classTitleText{text-anchor:middle;font-size:18px;fill:#333;}#my-svg .edgeLabel[data-look="neo"]{background-color:rgba(232,232,232, 0.8);text-align:center;}#my-svg .edgeLabel[data-look="neo"] p{background-color:rgba(232,232,232, 0.8);}#my-svg .edgeLabel[data-look="neo"] rect{opacity:0.5;background-color:rgba(232,232,232, 0.8);fill:rgba(232,232,232, 0.8);}#my-svg .label-icon{display:inline-block;height:1em;overflow:visible;vertical-align:-0.125em;}#my-svg .node .label-icon path{fill:currentColor;stroke:revert;stroke-width:revert;}#my-svg .node .neo-node{stroke:#9370DB;}#my-svg [data-look="neo"].node rect,#my-svg [data-look="neo"].cluster rect,#my-svg [data-look="neo"].node polygon{stroke:#9370DB;filter:drop-shadow(1px 2px 2px rgba(185, 185, 185, 1));}#my-svg [data-look="neo"].swimlane.cluster rect{filter:none;}#my-svg [data-look="neo"].node path{stroke:#9370DB;stroke-width:1px;}#my-svg [data-look="neo"].node .outer-path{filter:drop-shadow(1px 2px 2px rgba(185, 185, 185, 1));}#my-svg [data-look="neo"].node .neo-line path{stroke:#9370DB;filter:none;}#my-svg [data-look="neo"].node circle{stroke:#9370DB;filter:drop-shadow(1px 2px 2px rgba(185, 185, 185, 1));}#my-svg [data-look="neo"].node circle .state-start{fill:#000000;}#my-svg [data-look="neo"].icon-shape .icon{fill:#9370DB;filter:drop-shadow(1px 2px 2px rgba(185, 185, 185, 1));}#my-svg [data-look="neo"].icon-shape .icon-neo path{stroke:#9370DB;filter:drop-shadow(1px 2px 2px rgba(185, 185, 185, 1));}#my-svg :root{--mermaid-font-family:"trebuchet ms",verdana,arial,sans-serif;}</style><g><defs><marker id="my-svg_classDiagram-aggregationStart" class="marker aggregation classDiagram" refX="18" refY="7" markerWidth="190" markerHeight="240" orient="auto" markerUnits="userSpaceOnUse"><path d="M 18,7 L9,13 L1,7 L9,1 Z"/></marker></defs><defs><marker id="my-svg_classDiagram-aggregationEnd" class="marker aggregation classDiagram" refX="1" refY="7" markerWidth="20" markerHeight="28" orient="auto" markerUnits="userSpaceOnUse"><path d="M 18,7 L9,13 L1,7 L9,1 Z"/></marker></defs><defs><marker id="my-svg_classDiagram-aggregationStart-margin" class="marker aggregation classDiagram" refX="15" refY="7" markerWidth="190" markerHeight="240" orient="auto" markerUnits="userSpaceOnUse"><path d="M 18,7 L9,13 L1,7 L9,1 Z" style="stroke-width: 2;"/></marker></defs><defs><marker id="my-svg_classDiagram-aggregationEnd-margin" class="marker aggregation classDiagram" refX="1" refY="7" markerWidth="20" markerHeight="28" orient="auto" markerUnits="userSpaceOnUse"><path d="M 18,7 L9,13 L1,7 L9,1 Z" style="stroke-width: 2;"/></marker></defs><defs><marker id="my-svg_classDiagram-extensionStart" class="marker extension classDiagram" refX="18" refY="7" markerWidth="20" markerHeight="28" orient="auto" markerUnits="userSpaceOnUse"><path d="M 1,7 L18,13 V 1 Z"/></marker></defs><defs><marker id="my-svg_classDiagram-extensionEnd" class="marker extension classDiagram" refX="1" refY="7" markerWidth="20" markerHeight="28" orient="auto" markerUnits="userSpaceOnUse"><path d="M 1,1 V 13 L18,7 Z"/></marker></defs><marker id="my-svg_classDiagram-extensionStart-margin" class="marker extension classDiagram" refX="18" refY="7" markerWidth="20" markerHeight="28" orient="auto" markerUnits="userSpaceOnUse" viewBox="0 0 20 14"><polygon points="10,7 18,13 18,1" style="stroke-width: 2; stroke-dasharray: 0;"/></marker><defs><marker id="my-svg_classDiagram-extensionEnd-margin" class="marker extension classDiagram" refX="9" refY="7" markerWidth="20" markerHeight="28" orient="auto" markerUnits="userSpaceOnUse" viewBox="0 0 20 14"><polygon points="10,1 10,13 18,7" style="stroke-width: 2; stroke-dasharray: 0;"/></marker></defs><defs><marker id="my-svg_classDiagram-compositionStart" class="marker composition classDiagram" refX="18" refY="7" markerWidth="190" markerHeight="240" orient="auto" markerUnits="userSpaceOnUse"><path d="M 18,7 L9,13 L1,7 L9,1 Z"/></marker></defs><defs><marker id="my-svg_classDiagram-compositionEnd" class="marker composition classDiagram" refX="1" refY="7" markerWidth="20" markerHeight="28" orient="auto" markerUnits="userSpaceOnUse"><path d="M 18,7 L9,13 L1,7 L9,1 Z"/></marker></defs><defs><marker id="my-svg_classDiagram-compositionStart-margin" class="marker composition classDiagram" refX="15" refY="7" markerWidth="190" markerHeight="240" orient="auto" markerUnits="userSpaceOnUse"><path viewBox="0 0 15 15" d="M 18,7 L9,13 L1,7 L9,1 Z" style="stroke-width: 0;"/></marker></defs><defs><marker id="my-svg_classDiagram-compositionEnd-margin" class="marker composition classDiagram" refX="3.5" refY="7" markerWidth="20" markerHeight="28" orient="auto" markerUnits="userSpaceOnUse"><path d="M 18,7 L9,13 L1,7 L9,1 Z" style="stroke-width: 0;"/></marker></defs><defs><marker id="my-svg_classDiagram-dependencyStart" class="marker dependency classDiagram" refX="6" refY="7" markerWidth="190" markerHeight="240" orient="auto" markerUnits="userSpaceOnUse"><path d="M 5,7 L9,13 L1,7 L9,1 Z"/></marker></defs><defs><marker id="my-svg_classDiagram-dependencyEnd" class="marker dependency classDiagram" refX="13" refY="7" markerWidth="20" markerHeight="28" orient="auto" markerUnits="userSpaceOnUse"><path d="M 18,7 L9,13 L14,7 L9,1 Z"/></marker></defs><defs><marker id="my-svg_classDiagram-dependencyStart-margin" class="marker dependency classDiagram" refX="4" refY="7" markerWidth="190" markerHeight="240" orient="auto" markerUnits="userSpaceOnUse"><path d="M 5,7 L9,13 L1,7 L9,1 Z" style="stroke-width: 0;"/></marker></defs><defs><marker id="my-svg_classDiagram-dependencyEnd-margin" class="marker dependency classDiagram" refX="16" refY="7" markerWidth="20" markerHeight="28" orient="auto" markerUnits="userSpaceOnUse"><path d="M 18,7 L9,13 L14,7 L9,1 Z" style="stroke-width: 0;"/></marker></defs><defs><marker id="my-svg_classDiagram-lollipopStart" class="marker lollipop classDiagram" refX="13" refY="7" markerWidth="190" markerHeight="240" orient="auto" markerUnits="userSpaceOnUse"><circle fill="transparent" cx="7" cy="7" r="6"/></marker></defs><defs><marker id="my-svg_classDiagram-lollipopEnd" class="marker lollipop classDiagram" refX="1" refY="7" markerWidth="190" markerHeight="240" orient="auto" markerUnits="userSpaceOnUse"><circle fill="transparent" cx="7" cy="7" r="6"/></marker></defs><defs><marker id="my-svg_classDiagram-lollipopStart-margin" class="marker lollipop classDiagram" refX="13" refY="7" markerWidth="190" markerHeight="240" orient="auto" markerUnits="userSpaceOnUse"><circle fill="transparent" cx="7" cy="7" r="6" stroke-width="2"/></marker></defs><defs><marker id="my-svg_classDiagram-lollipopEnd-margin" class="marker lollipop classDiagram" refX="1" refY="7" markerWidth="190" markerHeight="240" orient="auto" markerUnits="userSpaceOnUse"><circle fill="transparent" cx="7" cy="7" r="6" stroke-width="2"/></marker></defs><g class="root"><g class="clusters"/><g class="edgePaths"><path d="M726.848,105.5L726.848,112.75C726.848,120,726.848,134.5,726.848,143.042C726.848,151.583,726.848,154.167,726.848,155.458L726.848,156.75" id="my-svg-id_ProductCommandServiceImpl_ProductCommandService_1" class="edge-thickness-normal edge-pattern-dashed relation" style=";;;" data-edge="true" data-et="edge" data-id="id_ProductCommandServiceImpl_ProductCommandService_1" data-points="W3sieCI6NzI2Ljg0NzY1NjI1LCJ5IjoxMDUuNX0seyJ4Ijo3MjYuODQ3NjU2MjUsInkiOjE0OX0seyJ4Ijo3MjYuODQ3NjU2MjUsInkiOjE3NH1d" data-look="classic" marker-end="url(#my-svg_classDiagram-extensionEnd)"/><path d="M1400.188,105.5L1400.188,112.75C1400.188,120,1400.188,134.5,1400.188,146.708C1400.188,158.917,1400.188,168.833,1400.188,173.792L1400.188,178.75" id="my-svg-id_ProductQueryServiceImpl_ProductQueryService_2" class="edge-thickness-normal edge-pattern-dashed relation" style=";;;" data-edge="true" data-et="edge" data-id="id_ProductQueryServiceImpl_ProductQueryService_2" data-points="W3sieCI6MTQwMC4xODc1LCJ5IjoxMDUuNX0seyJ4IjoxNDAwLjE4NzUsInkiOjE0OX0seyJ4IjoxNDAwLjE4NzUsInkiOjE5Nn1d" data-look="classic" marker-end="url(#my-svg_classDiagram-extensionEnd)"/><path d="M218.988,124L218.988,128.167C218.988,132.333,218.988,140.667,218.988,158.167C218.988,175.667,218.988,202.333,218.988,215.667L218.988,229" id="my-svg-id_MinimumStockAlertEvaluationJob_ProductRepository_3" class="edge-thickness-normal edge-pattern-solid relation" style=";;;" data-edge="true" data-et="edge" data-id="id_MinimumStockAlertEvaluationJob_ProductRepository_3" data-points="W3sieCI6MjE4Ljk4ODI4MTI1LCJ5IjoxMjR9LHsieCI6MjE4Ljk4ODI4MTI1LCJ5IjoxNDl9LHsieCI6MjE4Ljk4ODI4MTI1LCJ5IjoyMzV9XQ==" data-look="classic" marker-end="url(#my-svg_classDiagram-dependencyEnd)"/></g><g class="edgeLabels"><g class="edgeLabel"><g class="label" data-id="id_ProductCommandServiceImpl_ProductCommandService_1" transform="translate(0, 0)"><text y="-10.1" text-anchor="middle"><tspan class="text-outer-tspan row" x="0" y="-0.1em" dy="1.1em" text-anchor="middle"/></text></g></g><g><rect class="background" style="stroke: none"/></g><g class="edgeLabel"><g class="label" data-id="id_ProductQueryServiceImpl_ProductQueryService_2" transform="translate(0, 0)"><text y="-10.1" text-anchor="middle"><tspan class="text-outer-tspan row" x="0" y="-0.1em" dy="1.1em" text-anchor="middle"/></text></g></g><g><rect class="background" style="stroke: none"/></g><g class="edgeLabel"><g class="label" data-id="id_MinimumStockAlertEvaluationJob_ProductRepository_3" transform="translate(0, 0)"><text y="-10.1" text-anchor="middle"><tspan class="text-outer-tspan row" x="0" y="-0.1em" dy="1.1em" text-anchor="middle"/></text></g></g><g><rect class="background" style="stroke: none"/></g></g><g class="nodes"><g class="node default" id="my-svg-classId-ProductCommandService-0" data-look="classic" transform="translate(726.84765625, 274.5)"><g class="basic label-container outer-path"><path d="M-376.4609375 -100.5 L376.4609375 -100.5 L376.4609375 100.5 L-376.4609375 100.5" stroke="none" stroke-width="0" fill="#ECECFF" style=""/><path d="M-376.4609375 -100.5 C-84.71837140990635 -100.5, 207.0241946801873 -100.5, 376.4609375 -100.5 M-376.4609375 -100.5 C-216.45834378939065 -100.5, -56.45575007878131 -100.5, 376.4609375 -100.5 M376.4609375 -100.5 C376.4609375 -55.536386734499544, 376.4609375 -10.572773468999088, 376.4609375 100.5 M376.4609375 -100.5 C376.4609375 -44.99111272178072, 376.4609375 10.517774556438553, 376.4609375 100.5 M376.4609375 100.5 C120.40675090223937 100.5, -135.64743569552127 100.5, -376.4609375 100.5 M376.4609375 100.5 C132.23314856908755 100.5, -111.9946403618249 100.5, -376.4609375 100.5 M-376.4609375 100.5 C-376.4609375 58.06290620921553, -376.4609375 15.625812418431053, -376.4609375 -100.5 M-376.4609375 100.5 C-376.4609375 45.77929127554024, -376.4609375 -8.941417448919523, -376.4609375 -100.5" stroke="#9370DB" stroke-width="1.3" fill="none" stroke-dasharray="0 0" style=""/></g><g class="annotation-group text" transform="translate(-41.1171875, -80.5)"><g class="label" style="" transform="translate(0,-9.5)"><g><rect class="background" style="stroke: none"/><text y="-10.1" style=""><tspan class="text-outer-tspan row" x="0" y="-0.1em" dy="1.1em"><tspan font-style="normal" class="text-inner-tspan" font-weight="normal">«Interface»</tspan></tspan></text></g></g></g><g class="label-group text" transform="translate(-93.734375, -61.5)"><g class="label" style="font-weight: bolder" transform="translate(0,-9.5)"><g><rect class="background" style="stroke: none"/><text y="-10.1" style=""><tspan class="text-outer-tspan row" x="0" y="-0.1em" dy="1.1em" font-weight=""><tspan font-style="normal" class="text-inner-tspan" font-weight="">ProductCommandService</tspan></tspan></text></g></g></g><g class="members-group text" transform="translate(-364.4609375, -18.5)"/><g class="methods-group text" transform="translate(-364.4609375, 11.5)"><g class="label" style="" transform="translate(0,-9.5)"><g><rect class="background" style="stroke: none"/><text y="-10.1" style=""><tspan class="text-outer-tspan row" x="0" y="-0.1em" dy="1.1em"><tspan font-style="normal" class="text-inner-tspan" font-weight="normal">+handle(CreateProductCommand)</tspan><tspan font-style="normal" class="text-inner-tspan" font-weight="normal"> :</tspan><tspan font-style="normal" class="text-inner-tspan" font-weight="normal"> Result&lt;Product,</tspan><tspan font-style="normal" class="text-inner-tspan" font-weight="normal"> ProductCommandFailure&gt;</tspan></tspan></text></g></g><g class="label" style="" transform="translate(0,12.5)"><g><rect class="background" style="stroke: none"/><text y="-10.1" style=""><tspan class="text-outer-tspan row" x="0" y="-0.1em" dy="1.1em"><tspan font-style="normal" class="text-inner-tspan" font-weight="normal">+handle(AddBatchToProductCommand)</tspan><tspan font-style="normal" class="text-inner-tspan" font-weight="normal"> :</tspan><tspan font-style="normal" class="text-inner-tspan" font-weight="normal"> Result&lt;ProductBatch,</tspan><tspan font-style="normal" class="text-inner-tspan" font-weight="normal"> ProductCommandFailure&gt;</tspan></tspan></text></g></g><g class="label" style="" transform="translate(0,34.5)"><g><rect class="background" style="stroke: none"/><text y="-10.1" style=""><tspan class="text-outer-tspan row" x="0" y="-0.1em" dy="1.1em"><tspan font-style="normal" class="text-inner-tspan" font-weight="normal">+handle(UpdateProductCommand)</tspan><tspan font-style="normal" class="text-inner-tspan" font-weight="normal"> :</tspan><tspan font-style="normal" class="text-inner-tspan" font-weight="normal"> Result&lt;Product,</tspan><tspan font-style="normal" class="text-inner-tspan" font-weight="normal"> ProductCommandFailure&gt;</tspan></tspan></text></g></g><g class="label" style="" transform="translate(0,56.5)"><g><rect class="background" style="stroke: none"/><text y="-10.1" style=""><tspan class="text-outer-tspan row" x="0" y="-0.1em" dy="1.1em"><tspan font-style="normal" class="text-inner-tspan" font-weight="normal">+handle(DeleteProductCommand)</tspan><tspan font-style="normal" class="text-inner-tspan" font-weight="normal"> :</tspan><tspan font-style="normal" class="text-inner-tspan" font-weight="normal"> Result&lt;Void,</tspan><tspan font-style="normal" class="text-inner-tspan" font-weight="normal"> ProductCommandFailure&gt;</tspan></tspan></text></g></g></g><g class="divider" style=""><path d="M-376.4609375 -38.5 C-123.59708534155317 -38.49966415658709, 129.26676681689366 -38.499328313174175, 376.4609375 -38.499 M-376.4609375 -38.5 C-223.9455714786846 -38.4997974353368, -71.4302054573692 -38.49959487067361, 376.4609375 -38.499" stroke="#9370DB" stroke-width="1.3" fill="none" stroke-dasharray="0 0" style=""/></g><g class="divider" style=""><path d="M-376.4609375 -14.5 C-107.25832531710745 -14.499642456115142, 161.9442868657851 -14.499284912230282, 376.4609375 -14.499 M-376.4609375 -14.5 C-150.73650608272965 -14.499700202054274, 74.9879253345407 -14.499400404108549, 376.4609375 -14.499" stroke="#9370DB" stroke-width="1.3" fill="none" stroke-dasharray="0 0" style=""/></g></g><g class="node default" id="my-svg-classId-ProductQueryService-1" data-look="classic" transform="translate(1400.1875, 274.5)"><g class="basic label-container outer-path"><path d="M-246.87890625 -78.5 L246.87890625 -78.5 L246.87890625 78.5 L-246.87890625 78.5" stroke="none" stroke-width="0" fill="#ECECFF" style=""/><path d="M-246.87890625 -78.5 C-85.89415855058363 -78.5, 75.09058914883275 -78.5, 246.87890625 -78.5 M-246.87890625 -78.5 C-105.26134303660803 -78.5, 36.35622017678395 -78.5, 246.87890625 -78.5 M246.87890625 -78.5 C246.87890625 -19.61370547579262, 246.87890625 39.27258904841476, 246.87890625 78.5 M246.87890625 -78.5 C246.87890625 -20.31389596833803, 246.87890625 37.87220806332394, 246.87890625 78.5 M246.87890625 78.5 C49.71254135361639 78.5, -147.45382354276722 78.5, -246.87890625 78.5 M246.87890625 78.5 C67.03465425393009 78.5, -112.80959774213983 78.5, -246.87890625 78.5 M-246.87890625 78.5 C-246.87890625 38.256272728831654, -246.87890625 -1.9874545423366925, -246.87890625 -78.5 M-246.87890625 78.5 C-246.87890625 32.954240512456884, -246.87890625 -12.591518975086231, -246.87890625 -78.5" stroke="#9370DB" stroke-width="1.3" fill="none" stroke-dasharray="0 0" style=""/></g><g class="annotation-group text" transform="translate(-41.1171875, -58.5)"><g class="label" style="" transform="translate(0,-9.5)"><g><rect class="background" style="stroke: none"/><text y="-10.1" style=""><tspan class="text-outer-tspan row" x="0" y="-0.1em" dy="1.1em"><tspan font-style="normal" class="text-inner-tspan" font-weight="normal">«Interface»</tspan></tspan></text></g></g></g><g class="label-group text" transform="translate(-79.6171875, -39.5)"><g class="label" style="font-weight: bolder" transform="translate(0,-9.5)"><g><rect class="background" style="stroke: none"/><text y="-10.1" style=""><tspan class="text-outer-tspan row" x="0" y="-0.1em" dy="1.1em" font-weight=""><tspan font-style="normal" class="text-inner-tspan" font-weight="">ProductQueryService</tspan></tspan></text></g></g></g><g class="members-group text" transform="translate(-234.87890625, 3.5)"/><g class="methods-group text" transform="translate(-234.87890625, 33.5)"><g class="label" style="" transform="translate(0,-9.5)"><g><rect class="background" style="stroke: none"/><text y="-10.1" style=""><tspan class="text-outer-tspan row" x="0" y="-0.1em" dy="1.1em"><tspan font-style="normal" class="text-inner-tspan" font-weight="normal">+handle(GetProductsByBranchIdQuery)</tspan><tspan font-style="normal" class="text-inner-tspan" font-weight="normal"> :</tspan><tspan font-style="normal" class="text-inner-tspan" font-weight="normal"> List&lt;Product&gt;</tspan></tspan></text></g></g><g class="label" style="" transform="translate(0,12.5)"><g><rect class="background" style="stroke: none"/><text y="-10.1" style=""><tspan class="text-outer-tspan row" x="0" y="-0.1em" dy="1.1em"><tspan font-style="normal" class="text-inner-tspan" font-weight="normal">+handle(GetProductByIdQuery)</tspan><tspan font-style="normal" class="text-inner-tspan" font-weight="normal"> :</tspan><tspan font-style="normal" class="text-inner-tspan" font-weight="normal"> Optional&lt;Product&gt;</tspan></tspan></text></g></g></g><g class="divider" style=""><path d="M-246.87890625 -16.5 C-68.78276134991046 -16.49963930465424, 109.31338355017908 -16.499278609308483, 246.87890625 -16.499 M-246.87890625 -16.5 C-126.91022489116756 -16.49975702929995, -6.941543532335118 -16.499514058599896, 246.87890625 -16.499" stroke="#9370DB" stroke-width="1.3" fill="none" stroke-dasharray="0 0" style=""/></g><g class="divider" style=""><path d="M-246.87890625 7.5 C-112.6112450200497 7.500271930201064, 21.656416209900613 7.500543860402128, 246.87890625 7.501 M-246.87890625 7.5 C-67.27322249164737 7.500363752591274, 112.33246126670525 7.500727505182547, 246.87890625 7.501" stroke="#9370DB" stroke-width="1.3" fill="none" stroke-dasharray="0 0" style=""/></g></g><g class="node default" id="my-svg-classId-MinimumStockAlertEvaluationJob-2" data-look="classic" transform="translate(218.98828125, 66)"><g class="basic label-container outer-path"><path d="M-210.98828125 -58 L210.98828125 -58 L210.98828125 58 L-210.98828125 58" stroke="none" stroke-width="0" fill="#ECECFF" style=""/><path d="M-210.98828125 -58 C-58.81387781690739 -58, 93.36052561618521 -58, 210.98828125 -58 M-210.98828125 -58 C-82.98034726587557 -58, 45.02758671824887 -58, 210.98828125 -58 M210.98828125 -58 C210.98828125 -25.86672318143166, 210.98828125 6.266553637136681, 210.98828125 58 M210.98828125 -58 C210.98828125 -28.223292761570747, 210.98828125 1.5534144768585065, 210.98828125 58 M210.98828125 58 C101.75598883467077 58, -7.476303580658453 58, -210.98828125 58 M210.98828125 58 C62.53653830519829 58, -85.91520463960342 58, -210.98828125 58 M-210.98828125 58 C-210.98828125 21.00631666716533, -210.98828125 -15.987366665669342, -210.98828125 -58 M-210.98828125 58 C-210.98828125 29.079534688646447, -210.98828125 0.1590693772928944, -210.98828125 -58" stroke="#9370DB" stroke-width="1.3" fill="none" stroke-dasharray="0 0" style=""/></g><g class="annotation-group text" transform="translate(0, -38)"/><g class="label-group text" transform="translate(-125.4453125, -38)"><g class="label" style="font-weight: bolder" transform="translate(0,-9.5)"><g><rect class="background" style="stroke: none"/><text y="-10.1" style=""><tspan class="text-outer-tspan row" x="0" y="-0.1em" dy="1.1em" font-weight=""><tspan font-style="normal" class="text-inner-tspan" font-weight="">MinimumStockAlertEvaluationJob</tspan></tspan></text></g></g></g><g class="members-group text" transform="translate(-198.98828125, 5)"/><g class="methods-group text" transform="translate(-198.98828125, 35)"><g class="label" style="" transform="translate(0,-9.5)"><g><rect class="background" style="stroke: none"/><text y="-10.1" style=""><tspan class="text-outer-tspan row" x="0" y="-0.1em" dy="1.1em"><tspan font-style="normal" class="text-inner-tspan" font-weight="normal">+evaluateMinimumStockAlerts()</tspan><tspan font-style="normal" class="text-inner-tspan" font-weight="normal"> :</tspan><tspan font-style="normal" class="text-inner-tspan" font-weight="normal"> void</tspan></tspan></text></g></g></g><g class="divider" style=""><path d="M-210.98828125 -15 C-87.05216749332261 -14.9997062962146, 36.88394626335477 -14.999412592429199, 210.98828125 -14.999 M-210.98828125 -15 C-118.98088139255177 -14.999781960876422, -26.97348153510353 -14.999563921752847, 210.98828125 -14.999" stroke="#9370DB" stroke-width="1.3" fill="none" stroke-dasharray="0 0" style=""/></g><g class="divider" style=""><path d="M-210.98828125 9 C-84.56127979615952 9.000299606690724, 41.86572165768095 9.000599213381449, 210.98828125 9.001 M-210.98828125 9 C-62.077936062932764 9.000352887715623, 86.83240912413447 9.000705775431246, 210.98828125 9.001" stroke="#9370DB" stroke-width="1.3" fill="none" stroke-dasharray="0 0" style=""/></g></g><g class="node default" id="my-svg-classId-ProductCommandServiceImpl-3" data-look="classic" transform="translate(726.84765625, 66)"><g class="basic label-container outer-path"><path d="M-121.9921875 -39.5 L121.9921875 -39.5 L121.9921875 39.5 L-121.9921875 39.5" stroke="none" stroke-width="0" fill="#ECECFF" style=""/><path d="M-121.9921875 -39.5 C-39.65217452245956 -39.5, 42.68783845508088 -39.5, 121.9921875 -39.5 M-121.9921875 -39.5 C-27.582574745200887 -39.5, 66.82703800959823 -39.5, 121.9921875 -39.5 M121.9921875 -39.5 C121.9921875 -21.642004422031402, 121.9921875 -3.7840088440628037, 121.9921875 39.5 M121.9921875 -39.5 C121.9921875 -19.941359438215486, 121.9921875 -0.382718876430971, 121.9921875 39.5 M121.9921875 39.5 C40.62590163830987 39.5, -40.74038422338026 39.5, -121.9921875 39.5 M121.9921875 39.5 C56.99131932900015 39.5, -8.009548841999703 39.5, -121.9921875 39.5 M-121.9921875 39.5 C-121.9921875 22.220344071329833, -121.9921875 4.940688142659667, -121.9921875 -39.5 M-121.9921875 39.5 C-121.9921875 10.678019721994264, -121.9921875 -18.14396055601147, -121.9921875 -39.5" stroke="#9370DB" stroke-width="1.3" fill="none" stroke-dasharray="0 0" style=""/></g><g class="annotation-group text" transform="translate(0, -19.5)"/><g class="label-group text" transform="translate(-109.9921875, -19.5)"><g class="label" style="font-weight: bolder" transform="translate(0,-9.5)"><g><rect class="background" style="stroke: none"/><text y="-10.1" style=""><tspan class="text-outer-tspan row" x="0" y="-0.1em" dy="1.1em" font-weight=""><tspan font-style="normal" class="text-inner-tspan" font-weight="">ProductCommandServiceImpl</tspan></tspan></text></g></g></g><g class="members-group text" transform="translate(-109.9921875, 23.5)"/><g class="methods-group text" transform="translate(-109.9921875, 53.5)"/><g class="divider" style=""><path d="M-121.9921875 3.5 C-33.14845109188879 3.5003641369920024, 55.695285316222424 3.500728273984005, 121.9921875 3.501 M-121.9921875 3.5 C-37.04774039324852 3.500348155274725, 47.896706713502965 3.50069631054945, 121.9921875 3.501" stroke="#9370DB" stroke-width="1.3" fill="none" stroke-dasharray="0 0" style=""/></g><g class="divider" style=""><path d="M-121.9921875 21.5 C-62.901335206340995 21.50024219113332, -3.810482912681991 21.50048438226664, 121.9921875 21.501 M-121.9921875 21.5 C-65.096443694235 21.500233194210924, -8.200699888469998 21.50046638842185, 121.9921875 21.501" stroke="#9370DB" stroke-width="1.3" fill="none" stroke-dasharray="0 0" style=""/></g></g><g class="node default" id="my-svg-classId-ProductQueryServiceImpl-4" data-look="classic" transform="translate(1400.1875, 66)"><g class="basic label-container outer-path"><path d="M-107.875 -39.5 L107.875 -39.5 L107.875 39.5 L-107.875 39.5" stroke="none" stroke-width="0" fill="#ECECFF" style=""/><path d="M-107.875 -39.5 C-41.7831377622103 -39.5, 24.308724475579396 -39.5, 107.875 -39.5 M-107.875 -39.5 C-40.57834382612454 -39.5, 26.718312347750924 -39.5, 107.875 -39.5 M107.875 -39.5 C107.875 -9.097775028730364, 107.875 21.30444994253927, 107.875 39.5 M107.875 -39.5 C107.875 -14.859971700664804, 107.875 9.780056598670392, 107.875 39.5 M107.875 39.5 C53.68740166555873 39.5, -0.5001966688825377 39.5, -107.875 39.5 M107.875 39.5 C58.823307629019254 39.5, 9.771615258038509 39.5, -107.875 39.5 M-107.875 39.5 C-107.875 19.617288095872045, -107.875 -0.2654238082559104, -107.875 -39.5 M-107.875 39.5 C-107.875 21.55632039466793, -107.875 3.612640789335863, -107.875 -39.5" stroke="#9370DB" stroke-width="1.3" fill="none" stroke-dasharray="0 0" style=""/></g><g class="annotation-group text" transform="translate(0, -19.5)"/><g class="label-group text" transform="translate(-95.875, -19.5)"><g class="label" style="font-weight: bolder" transform="translate(0,-9.5)"><g><rect class="background" style="stroke: none"/><text y="-10.1" style=""><tspan class="text-outer-tspan row" x="0" y="-0.1em" dy="1.1em" font-weight=""><tspan font-style="normal" class="text-inner-tspan" font-weight="">ProductQueryServiceImpl</tspan></tspan></text></g></g></g><g class="members-group text" transform="translate(-95.875, 23.5)"/><g class="methods-group text" transform="translate(-95.875, 53.5)"/><g class="divider" style=""><path d="M-107.875 3.5 C-49.707015075616404 3.500269608273114, 8.460969848767192 3.5005392165462283, 107.875 3.501 M-107.875 3.5 C-33.15464801518229 3.500346328398539, 41.56570396963542 3.500692656797078, 107.875 3.501" stroke="#9370DB" stroke-width="1.3" fill="none" stroke-dasharray="0 0" style=""/></g><g class="divider" style=""><path d="M-107.875 21.5 C-42.34731192950893 21.500303720454557, 23.180376140982133 21.500607440909114, 107.875 21.501 M-107.875 21.5 C-53.676918487967505 21.5002512077938, 0.5211630240649896 21.500502415587597, 107.875 21.501" stroke="#9370DB" stroke-width="1.3" fill="none" stroke-dasharray="0 0" style=""/></g></g><g class="node default" id="my-svg-classId-ProductRepository-5" data-look="classic" transform="translate(218.98828125, 274.5)"><g class="basic label-container outer-path"><path d="M-81.3984375 -39.5 L81.3984375 -39.5 L81.3984375 39.5 L-81.3984375 39.5" stroke="none" stroke-width="0" fill="#ECECFF" style=""/><path d="M-81.3984375 -39.5 C-22.708188591406945 -39.5, 35.98206031718611 -39.5, 81.3984375 -39.5 M-81.3984375 -39.5 C-41.98177867070149 -39.5, -2.565119841402975 -39.5, 81.3984375 -39.5 M81.3984375 -39.5 C81.3984375 -8.617167782604653, 81.3984375 22.265664434790693, 81.3984375 39.5 M81.3984375 -39.5 C81.3984375 -10.245591453799669, 81.3984375 19.008817092400662, 81.3984375 39.5 M81.3984375 39.5 C40.725060674568915 39.5, 0.05168384913783086 39.5, -81.3984375 39.5 M81.3984375 39.5 C21.457110285491424 39.5, -38.48421692901715 39.5, -81.3984375 39.5 M-81.3984375 39.5 C-81.3984375 15.188852099650894, -81.3984375 -9.122295800698211, -81.3984375 -39.5 M-81.3984375 39.5 C-81.3984375 22.80177974653738, -81.3984375 6.103559493074762, -81.3984375 -39.5" stroke="#9370DB" stroke-width="1.3" fill="none" stroke-dasharray="0 0" style=""/></g><g class="annotation-group text" transform="translate(0, -19.5)"/><g class="label-group text" transform="translate(-69.3984375, -19.5)"><g class="label" style="font-weight: bolder" transform="translate(0,-9.5)"><g><rect class="background" style="stroke: none"/><text y="-10.1" style=""><tspan class="text-outer-tspan row" x="0" y="-0.1em" dy="1.1em" font-weight=""><tspan font-style="normal" class="text-inner-tspan" font-weight="">ProductRepository</tspan></tspan></text></g></g></g><g class="members-group text" transform="translate(-69.3984375, 23.5)"/><g class="methods-group text" transform="translate(-69.3984375, 53.5)"/><g class="divider" style=""><path d="M-81.3984375 3.5 C-43.13109734106565 3.5002350618840743, -4.863757182131295 3.500470123768149, 81.3984375 3.501 M-81.3984375 3.5 C-35.241774072380984 3.5002835230309404, 10.914889355238031 3.5005670460618807, 81.3984375 3.501" stroke="#9370DB" stroke-width="1.3" fill="none" stroke-dasharray="0 0" style=""/></g><g class="divider" style=""><path d="M-81.3984375 21.5 C-46.73205556047291 21.500212942551507, -12.065673620945816 21.50042588510301, 81.3984375 21.501 M-81.3984375 21.5 C-38.531723336453936 21.50026331410946, 4.334990827092128 21.50052662821892, 81.3984375 21.501" stroke="#9370DB" stroke-width="1.3" fill="none" stroke-dasharray="0 0" style=""/></g></g></g></g></g><defs><filter id="my-svg-drop-shadow" height="130%" width="130%"><feDropShadow dx="4" dy="4" stdDeviation="0" flood-opacity="0.06" flood-color="#000000"/></filter></defs><defs><filter id="my-svg-drop-shadow-small" height="150%" width="150%"><feDropShadow dx="2" dy="2" stdDeviation="0" flood-opacity="0.06" flood-color="#000000"/></filter></defs></svg>